{
	"accessors" : 
	[
		{
			"bufferView" : 2,
			"byteOffset" : 0,
			"componentType" : 5126,
			"count" : 240,
			"max" : 
			[
				1,
				1,
				1,
				1
			],
			"min" : 
			[
				0.1904628723859787,
				0.2844520807266235,
				0.3392233550548553,
				1
			],
			"name" : "accessor_color_m0-PolyPaper16_-22822",
			"type" : "VEC4"
		},
		{
			"bufferView" : 2,
			"byteOffset" : 3840,
			"componentType" : 5126,
			"count" : 144,
			"max" : 
			[
				1,
				1,
				1,
				1
			],
			"min" : 
			[
				1,
				1,
				1,
				1
			],
			"name" : "accessor_color_m1-PolyGem25_-22824",
			"type" : "VEC4"
		},
		{
			"bufferView" : 0,
			"byteOffset" : 0,
			"componentType" : 5123,
			"count" : 408,
			"max" : 
			[
				239
			],
			"min" : 
			[
				0
			],
			"name" : "accessor_indices_0_m0-PolyPaper16_-22822",
			"type" : "SCALAR"
		},
		{
			"bufferView" : 0,
			"byteOffset" : 816,
			"componentType" : 5123,
			"count" : 144,
			"max" : 
			[
				143
			],
			"min" : 
			[
				0
			],
			"name" : "accessor_indices_0_m1-PolyGem25_-22824",
			"type" : "SCALAR"
		},
		{
			"bufferView" : 1,
			"byteOffset" : 2880,
			"componentType" : 5126,
			"count" : 240,
			"max" : 
			[
				0.9659261,
				1,
				0.9659261
			],
			"min" : 
			[
				-0.9659261,
				-1,
				-0.9659261
			],
			"name" : "accessor_normal_m0-PolyPaper16_-22822",
			"type" : "VEC3"
		},
		{
			"bufferView" : 1,
			"byteOffset" : 7488,
			"componentType" : 5126,
			"count" : 144,
			"max" : 
			[
				0.9507618,
				1,
				0.9507624
			],
			"min" : 
			[
				-0.9507612,
				-0.204009,
				-0.9690377999999999
			],
			"name" : "accessor_normal_m1-PolyGem25_-22824",
			"type" : "VEC3"
		},
		{
			"bufferView" : 1,
			"byteOffset" : 0,
			"componentType" : 5126,
			"count" : 240,
			"max" : 
			[
				0.468237,
				1.04,
				0.5882362
			],
			"min" : 
			[
				0.3116951,
				0.8699999,
				0.4316944
			],
			"name" : "accessor_position_m0-PolyPaper16_-22822",
			"type" : "VEC3"
		},
		{
			"bufferView" : 1,
			"byteOffset" : 5760,
			"componentType" : 5126,
			"count" : 144,
			"max" : 
			[
				0.4799661,
				1.04,
				0.5978114
			],
			"min" : 
			[
				0.299966,
				0.8899999,
				0.4221193
			],
			"name" : "accessor_position_m1-PolyGem25_-22824",
			"type" : "VEC3"
		}
	],
	"asset" : 
	{
		"copyright" : "Unknown",
		"generator" : "glTF 1-to-2 Upgrader for Google Blocks",
		"version" : "2.0"
	},
	"bufferViews" : 
	[
		{
			"buffer" : 0,
			"byteLength" : 1104,
			"byteOffset" : 0,
			"name" : "ushortBufferView",
			"target" : 34963
		},
		{
			"buffer" : 0,
			"byteLength" : 9216,
			"byteOffset" : 1104,
			"byteStride" : 12,
			"name" : "vec3BufferView",
			"target" : 34962
		},
		{
			"buffer" : 0,
			"byteLength" : 6144,
			"byteOffset" : 10320,
			"byteStride" : 16,
			"name" : "vec4BufferView",
			"target" : 34962
		}
	],
	"buffers" : 
	[
		{
			"byteLength" : 16464,
			"name" : "model",
			"uri" : "model.bin"
		}
	],
	"materials" : 
	[
		{
			"alphaMode" : "OPAQUE",
			"doubleSided" : false,
			"name" : "BlocksPaper",
			"pbrMetallicRoughness" : 
			{
				"baseColorFactor" : 
				[
					1,
					1,
					1,
					1
				],
				"metallicFactor" : 0,
				"roughnessFactor" : 0.6
			}
		},
		{
			"alphaMode" : "BLEND",
			"doubleSided" : false,
			"name" : "BlocksGlass",
			"pbrMetallicRoughness" : 
			{
				"baseColorFactor" : 
				[
					0.2,
					0.2,
					1,
					0.3
				],
				"metallicFactor" : 1,
				"roughnessFactor" : 0.4
			}
		},
		{
			"alphaMode" : "OPAQUE",
			"doubleSided" : true,
			"name" : "BlocksGem",
			"pbrMetallicRoughness" : 
			{
				"baseColorFactor" : 
				[
					1,
					0.4,
					1,
					1
				],
				"metallicFactor" : 0,
				"roughnessFactor" : 0.1
			}
		}
	],
	"meshes" : 
	[
		{
			"name" : "mesh_m0-PolyPaper16_-22822",
			"primitives" : 
			[
				{
					"attributes" : 
					{
						"COLOR_0" : 0,
						"NORMAL" : 4,
						"POSITION" : 6
					},
					"indices" : 2,
					"material" : 0,
					"mode" : 4
				}
			]
		},
		{
			"name" : "mesh_m1-PolyGem25_-22824",
			"primitives" : 
			[
				{
					"attributes" : 
					{
						"COLOR_0" : 1,
						"NORMAL" : 5,
						"POSITION" : 7
					},
					"indices" : 3,
					"material" : 2,
					"mode" : 4
				}
			]
		}
	],
	"nodes" : 
	[
		{
			"matrix" : 
			[
				1,
				0,
				0,
				0,
				0,
				1,
				0,
				0,
				0,
				0,
				1,
				0,
				0,
				0,
				0,
				1
			],
			"mesh" : 1,
			"name" : "node_MeshObject-1282645696-PolyGem25"
		},
		{
			"matrix" : 
			[
				1,
				0,
				0,
				0,
				0,
				1,
				0,
				0,
				0,
				0,
				1,
				0,
				0,
				0,
				0,
				1
			],
			"mesh" : 0,
			"name" : "node_MeshObject-1801365760-PolyPaper16"
		}
	],
	"scene" : 0,
	"scenes" : 
	[
		{
			"extras" : {},
			"name" : "defaultScene",
			"nodes" : 
			[
				1,
				0
			]
		}
	]
}