{
    "asset" : {
        "generator" : "Khronos Blender glTF 2.0 I/O",
        "version" : "2.0"
    },
    "scene" : 0,
    "scenes" : [
        {
            "name" : "Scene",
            "nodes" : [
                0
            ]
        }
    ],
    "nodes" : [
        {
            "mesh" : 0,
            "name" : "group1825113648",
            "rotation" : [
                0.05316959694027901,
                0.021010687574744225,
                0.021204913035035133,
                0.9981393218040466
            ],
            "translation" : [
                -0.0008059442043304443,
                0.0018471777439117432,
                0.0010961070656776428
            ]
        }
    ],
    "materials" : [
        {
            "name" : "mat21",
            "pbrMetallicRoughness" : {
                "baseColorFactor" : [
                    1,
                    1,
                    1,
                    1
                ],
                "metallicFactor" : 0,
                "roughnessFactor" : 1
            }
        },
        {
            "name" : "mat16",
            "pbrMetallicRoughness" : {
                "baseColorFactor" : [
                    0.4699999988079071,
                    0.5600000023841858,
                    0.6100000143051147,
                    1
                ],
                "metallicFactor" : 0,
                "roughnessFactor" : 1
            }
        }
    ],
    "meshes" : [
        {
            "name" : "group1825113648",
            "primitives" : [
                {
                    "attributes" : {
                        "POSITION" : 0,
                        "NORMAL" : 1,
                        "TEXCOORD_0" : 2
                    },
                    "indices" : 3,
                    "material" : 0
                },
                {
                    "attributes" : {
                        "POSITION" : 4,
                        "NORMAL" : 5,
                        "TEXCOORD_0" : 6
                    },
                    "indices" : 7,
                    "material" : 1
                }
            ]
        }
    ],
    "accessors" : [
        {
            "bufferView" : 0,
            "componentType" : 5126,
            "count" : 104,
            "max" : [
                0.03206315636634827,
                0.12811005115509033,
                0.05599694699048996
            ],
            "min" : [
                -0.032355934381484985,
                -0.08840903639793396,
                -0.036689914762973785
            ],
            "type" : "VEC3"
        },
        {
            "bufferView" : 1,
            "componentType" : 5126,
            "count" : 104,
            "type" : "VEC3"
        },
        {
            "bufferView" : 2,
            "componentType" : 5126,
            "count" : 104,
            "type" : "VEC2"
        },
        {
            "bufferView" : 3,
            "componentType" : 5123,
            "count" : 138,
            "type" : "SCALAR"
        },
        {
            "bufferView" : 4,
            "componentType" : 5126,
            "count" : 36,
            "max" : [
                0.031249552965164185,
                0.035991549491882324,
                0.03290185332298279
            ],
            "min" : [
                -0.02710653841495514,
                -0.0827617347240448,
                -0.03053347021341324
            ],
            "type" : "VEC3"
        },
        {
            "bufferView" : 5,
            "componentType" : 5126,
            "count" : 36,
            "type" : "VEC3"
        },
        {
            "bufferView" : 6,
            "componentType" : 5126,
            "count" : 36,
            "type" : "VEC2"
        },
        {
            "bufferView" : 7,
            "componentType" : 5123,
            "count" : 54,
            "type" : "SCALAR"
        }
    ],
    "bufferViews" : [
        {
            "buffer" : 0,
            "byteLength" : 1248,
            "byteOffset" : 0
        },
        {
            "buffer" : 0,
            "byteLength" : 1248,
            "byteOffset" : 1248
        },
        {
            "buffer" : 0,
            "byteLength" : 832,
            "byteOffset" : 2496
        },
        {
            "buffer" : 0,
            "byteLength" : 276,
            "byteOffset" : 3328
        },
        {
            "buffer" : 0,
            "byteLength" : 432,
            "byteOffset" : 3604
        },
        {
            "buffer" : 0,
            "byteLength" : 432,
            "byteOffset" : 4036
        },
        {
            "buffer" : 0,
            "byteLength" : 288,
            "byteOffset" : 4468
        },
        {
            "buffer" : 0,
            "byteLength" : 108,
            "byteOffset" : 4756
        }
    ],
    "buffers" : [
        {
            "byteLength" : 4864,
            "uri" : "data:application/octet-stream;base64,"
        }
    ]
}
