{
    "asset" : {
        "generator" : "Khronos Blender glTF 2.0 I/O",
        "version" : "2.0"
    },
    "scene" : 0,
    "scenes" : [
        {
            "name" : "Scene",
            "nodes" : [
                0
            ]
        }
    ],
    "nodes" : [
        {
            "mesh" : 0,
            "name" : "node-0.002",
            "rotation" : [
                0.6765627264976501,
                0.2071637064218521,
                0.022168485447764397,
                0.706296443939209
            ],
            "scale" : [
                0.004415673669427633,
                0.004415674600750208,
                0.0044156755320727825
            ],
            "translation" : [
                0,
                0.248740091919899,
                0
            ]
        }
    ],
    "meshes" : [
        {
            "name" : "buffer-0-mesh-0.002",
            "primitives" : [
                {
                    "attributes" : {
                        "POSITION" : 0,
                        "NORMAL" : 1,
                        "TEXCOORD_0" : 2
                    },
                    "indices" : 3
                }
            ]
        }
    ],
    "accessors" : [
        {
            "bufferView" : 0,
            "componentType" : 5126,
            "count" : 17940,
            "max" : [
                72.47906494140625,
                66.59963989257812,
                140.83865356445312
            ],
            "min" : [
                -71.76397705078125,
                -66.92715454101562,
                -41.06019592285156
            ],
            "type" : "VEC3"
        },
        {
            "bufferView" : 1,
            "componentType" : 5126,
            "count" : 17940,
            "type" : "VEC3"
        },
        {
            "bufferView" : 2,
            "componentType" : 5126,
            "count" : 17940,
            "type" : "VEC2"
        },
        {
            "bufferView" : 3,
            "componentType" : 5123,
            "count" : 17940,
            "type" : "SCALAR"
        }
    ],
    "bufferViews" : [
        {
            "buffer" : 0,
            "byteLength" : 215280,
            "byteOffset" : 0
        },
        {
            "buffer" : 0,
            "byteLength" : 215280,
            "byteOffset" : 215280
        },
        {
            "buffer" : 0,
            "byteLength" : 143520,
            "byteOffset" : 430560
        },
        {
            "buffer" : 0,
            "byteLength" : 35880,
            "byteOffset" : 574080
        }
    ],
    "buffers" : [
        {
            "byteLength" : 609960,
            "uri" : "data:application/octet-stream;base64,"
        }
    ]
}
