{
    "asset" : {
        "generator" : "Khronos Blender glTF 2.0 I/O",
        "version" : "2.0"
    },
    "scene" : 0,
    "scenes" : [
        {
            "name" : "Scene",
            "nodes" : [
                0,
                1
            ]
        }
    ],
    "nodes" : [
        {
            "mesh" : 0,
            "name" : "node-0",
            "rotation" : [
                0.7071068286895752,
                0,
                0,
                0.7071067094802856
            ],
            "scale" : [
                0.018248215317726135,
                0.018248215317726135,
                0.018248215317726135
            ]
        },
        {
            "mesh" : 1,
            "name" : "node-0.002"
        }
    ],
    "materials" : [
        {
            "name" : "Material.001",
            "pbrMetallicRoughness" : {
                "baseColorFactor" : [
                    1,
                    1,
                    1,
                    1
                ],
                "metallicFactor" : 0,
                "roughnessFactor" : 0.9699476361274719
            }
        }
    ],
    "meshes" : [
        {
            "name" : "buffer-0-mesh-0",
            "primitives" : [
                {
                    "attributes" : {
                        "POSITION" : 0,
                        "NORMAL" : 1,
                        "TEXCOORD_0" : 2
                    },
                    "indices" : 3,
                    "material" : 0
                }
            ]
        },
        {
            "name" : "buffer-0-mesh-0.002",
            "primitives" : [
                {
                    "attributes" : {
                        "POSITION" : 4,
                        "NORMAL" : 5,
                        "TEXCOORD_0" : 6
                    },
                    "indices" : 7
                }
            ]
        }
    ],
    "accessors" : [
        {
            "bufferView" : 0,
            "componentType" : 5126,
            "count" : 10580,
            "max" : [
                14.042732238769531,
                45.90394973754883,
                19.58230209350586
            ],
            "min" : [
                -13.600250244140625,
                -24.701311111450195,
                -28.266040802001953
            ],
            "type" : "VEC3"
        },
        {
            "bufferView" : 1,
            "componentType" : 5126,
            "count" : 10580,
            "type" : "VEC3"
        },
        {
            "bufferView" : 2,
            "componentType" : 5126,
            "count" : 10580,
            "type" : "VEC2"
        },
        {
            "bufferView" : 3,
            "componentType" : 5123,
            "count" : 54378,
            "type" : "SCALAR"
        },
        {
            "bufferView" : 4,
            "componentType" : 5126,
            "count" : 17940,
            "max" : [
                75.22046661376953,
                219.22372436523438,
                0
            ],
            "min" : [
                -69.02257537841797,
                85.69690704345703,
                -181.8988494873047
            ],
            "type" : "VEC3"
        },
        {
            "bufferView" : 5,
            "componentType" : 5126,
            "count" : 17940,
            "type" : "VEC3"
        },
        {
            "bufferView" : 6,
            "componentType" : 5126,
            "count" : 17940,
            "type" : "VEC2"
        },
        {
            "bufferView" : 7,
            "componentType" : 5123,
            "count" : 17940,
            "type" : "SCALAR"
        }
    ],
    "bufferViews" : [
        {
            "buffer" : 0,
            "byteLength" : 126960,
            "byteOffset" : 0
        },
        {
            "buffer" : 0,
            "byteLength" : 126960,
            "byteOffset" : 126960
        },
        {
            "buffer" : 0,
            "byteLength" : 84640,
            "byteOffset" : 253920
        },
        {
            "buffer" : 0,
            "byteLength" : 108756,
            "byteOffset" : 338560
        },
        {
            "buffer" : 0,
            "byteLength" : 215280,
            "byteOffset" : 447316
        },
        {
            "buffer" : 0,
            "byteLength" : 215280,
            "byteOffset" : 662596
        },
        {
            "buffer" : 0,
            "byteLength" : 143520,
            "byteOffset" : 877876
        },
        {
            "buffer" : 0,
            "byteLength" : 35880,
            "byteOffset" : 1021396
        }
    ],
    "buffers" : [
        {
            "byteLength" : 1057276,
            "uri" : "data:application/octet-stream;base64,"
        }
    ]
}
