{
    "asset" : {
        "generator" : "Khronos Blender glTF 2.0 I/O",
        "version" : "2.0"
    },
    "scene" : 0,
    "scenes" : [
        {
            "name" : "Scene",
            "nodes" : [
                0
            ]
        }
    ],
    "nodes" : [
        {
            "mesh" : 0,
            "name" : "group1709697573",
            "rotation" : [
                0.09073463082313538,
                -0.015917303040623665,
                0.09090299159288406,
                0.9915899038314819
            ],
            "translation" : [
                -0.0008059442043304443,
                0.0018471777439117432,
                0.0010961145162582397
            ]
        }
    ],
    "materials" : [
        {
            "name" : "mat21",
            "pbrMetallicRoughness" : {
                "baseColorFactor" : [
                    1,
                    1,
                    1,
                    1
                ],
                "metallicFactor" : 0,
                "roughnessFactor" : 1
            }
        },
        {
            "name" : "mat12",
            "pbrMetallicRoughness" : {
                "baseColorFactor" : [
                    1,
                    0.9200000166893005,
                    0.23000000417232513,
                    1
                ],
                "metallicFactor" : 0,
                "roughnessFactor" : 1
            }
        }
    ],
    "meshes" : [
        {
            "name" : "group1709697573",
            "primitives" : [
                {
                    "attributes" : {
                        "POSITION" : 0,
                        "NORMAL" : 1,
                        "TEXCOORD_0" : 2
                    },
                    "indices" : 3,
                    "material" : 0
                },
                {
                    "attributes" : {
                        "POSITION" : 4,
                        "NORMAL" : 5,
                        "TEXCOORD_0" : 6
                    },
                    "indices" : 7,
                    "material" : 1
                }
            ]
        }
    ],
    "accessors" : [
        {
            "bufferView" : 0,
            "componentType" : 5126,
            "count" : 280,
            "max" : [
                0.09829768538475037,
                0.05627903342247009,
                0.08016364276409149
            ],
            "min" : [
                -0.09270229935646057,
                -0.04417048394680023,
                -0.03943556547164917
            ],
            "type" : "VEC3"
        },
        {
            "bufferView" : 1,
            "componentType" : 5126,
            "count" : 280,
            "type" : "VEC3"
        },
        {
            "bufferView" : 2,
            "componentType" : 5126,
            "count" : 280,
            "type" : "VEC2"
        },
        {
            "bufferView" : 3,
            "componentType" : 5123,
            "count" : 306,
            "type" : "SCALAR"
        },
        {
            "bufferView" : 4,
            "componentType" : 5126,
            "count" : 170,
            "max" : [
                0.07720467448234558,
                0.040246039628982544,
                0.017340049147605896
            ],
            "min" : [
                -0.07370319962501526,
                -0.031658872961997986,
                -0.04124385118484497
            ],
            "type" : "VEC3"
        },
        {
            "bufferView" : 5,
            "componentType" : 5126,
            "count" : 170,
            "type" : "VEC3"
        },
        {
            "bufferView" : 6,
            "componentType" : 5126,
            "count" : 170,
            "type" : "VEC2"
        },
        {
            "bufferView" : 7,
            "componentType" : 5123,
            "count" : 216,
            "type" : "SCALAR"
        }
    ],
    "bufferViews" : [
        {
            "buffer" : 0,
            "byteLength" : 3360,
            "byteOffset" : 0
        },
        {
            "buffer" : 0,
            "byteLength" : 3360,
            "byteOffset" : 3360
        },
        {
            "buffer" : 0,
            "byteLength" : 2240,
            "byteOffset" : 6720
        },
        {
            "buffer" : 0,
            "byteLength" : 612,
            "byteOffset" : 8960
        },
        {
            "buffer" : 0,
            "byteLength" : 2040,
            "byteOffset" : 9572
        },
        {
            "buffer" : 0,
            "byteLength" : 2040,
            "byteOffset" : 11612
        },
        {
            "buffer" : 0,
            "byteLength" : 1360,
            "byteOffset" : 13652
        },
        {
            "buffer" : 0,
            "byteLength" : 432,
            "byteOffset" : 15012
        }
    ],
    "buffers" : [
        {
            "byteLength" : 15444,
            "uri" : "data:application/octet-stream;base64,"
        }
    ]
}
