{
    "asset" : {
        "generator" : "Khronos Blender glTF 2.0 I/O",
        "version" : "2.0"
    },
    "scene" : 0,
    "scenes" : [
        {
            "name" : "Scene",
            "nodes" : [
                0
            ]
        }
    ],
    "nodes" : [
        {
            "mesh" : 0,
            "name" : "group667077922",
            "rotation" : [
                0.04137769713997841,
                0.02705535851418972,
                -0.6747318506240845,
                0.7364054322242737
            ],
            "translation" : [
                -0.0008059144020080566,
                0.0018471777439117432,
                0.0010961107909679413
            ]
        }
    ],
    "materials" : [
        {
            "name" : "mat8",
            "pbrMetallicRoughness" : {
                "baseColorFactor" : [
                    0.9599999785423279,
                    0.25999999046325684,
                    0.20999999344348907,
                    1
                ],
                "metallicFactor" : 0,
                "roughnessFactor" : 1
            }
        },
        {
            "name" : "mat15",
            "pbrMetallicRoughness" : {
                "baseColorFactor" : [
                    0.8100000023841858,
                    0.8500000238418579,
                    0.8600000143051147,
                    1
                ],
                "metallicFactor" : 0,
                "roughnessFactor" : 1
            }
        },
        {
            "name" : "mat3",
            "pbrMetallicRoughness" : {
                "baseColorFactor" : [
                    0.5,
                    0.8700000047683716,
                    0.9200000166893005,
                    1
                ],
                "metallicFactor" : 0,
                "roughnessFactor" : 1
            }
        }
    ],
    "meshes" : [
        {
            "name" : "group667077922",
            "primitives" : [
                {
                    "attributes" : {
                        "POSITION" : 0,
                        "NORMAL" : 1,
                        "TEXCOORD_0" : 2
                    },
                    "indices" : 3,
                    "material" : 0
                },
                {
                    "attributes" : {
                        "POSITION" : 4,
                        "NORMAL" : 5,
                        "TEXCOORD_0" : 6
                    },
                    "indices" : 7,
                    "material" : 1
                },
                {
                    "attributes" : {
                        "POSITION" : 8,
                        "NORMAL" : 9,
                        "TEXCOORD_0" : 10
                    },
                    "indices" : 11,
                    "material" : 2
                }
            ]
        }
    ],
    "accessors" : [
        {
            "bufferView" : 0,
            "componentType" : 5126,
            "count" : 245,
            "max" : [
                0.19962447881698608,
                0.20443694293498993,
                0.1162232831120491
            ],
            "min" : [
                -0.13039535284042358,
                -0.1920175552368164,
                -0.06405588984489441
            ],
            "type" : "VEC3"
        },
        {
            "bufferView" : 1,
            "componentType" : 5126,
            "count" : 245,
            "type" : "VEC3"
        },
        {
            "bufferView" : 2,
            "componentType" : 5126,
            "count" : 245,
            "type" : "VEC2"
        },
        {
            "bufferView" : 3,
            "componentType" : 5123,
            "count" : 303,
            "type" : "SCALAR"
        },
        {
            "bufferView" : 4,
            "componentType" : 5126,
            "count" : 85,
            "max" : [
                0.08268356323242188,
                0.18355034291744232,
                0.11568308621644974
            ],
            "min" : [
                -0.018070697784423828,
                -0.1826619654893875,
                -0.04671238362789154
            ],
            "type" : "VEC3"
        },
        {
            "bufferView" : 5,
            "componentType" : 5126,
            "count" : 85,
            "type" : "VEC3"
        },
        {
            "bufferView" : 6,
            "componentType" : 5126,
            "count" : 85,
            "type" : "VEC2"
        },
        {
            "bufferView" : 7,
            "componentType" : 5123,
            "count" : 111,
            "type" : "SCALAR"
        },
        {
            "bufferView" : 8,
            "componentType" : 5126,
            "count" : 44,
            "max" : [
                0.012368261814117432,
                0.20311833918094635,
                0.03171505779027939
            ],
            "min" : [
                -0.09590154886245728,
                -0.18888835608959198,
                -0.06405588984489441
            ],
            "type" : "VEC3"
        },
        {
            "bufferView" : 9,
            "componentType" : 5126,
            "count" : 44,
            "type" : "VEC3"
        },
        {
            "bufferView" : 10,
            "componentType" : 5126,
            "count" : 44,
            "type" : "VEC2"
        },
        {
            "bufferView" : 11,
            "componentType" : 5123,
            "count" : 60,
            "type" : "SCALAR"
        }
    ],
    "bufferViews" : [
        {
            "buffer" : 0,
            "byteLength" : 2940,
            "byteOffset" : 0
        },
        {
            "buffer" : 0,
            "byteLength" : 2940,
            "byteOffset" : 2940
        },
        {
            "buffer" : 0,
            "byteLength" : 1960,
            "byteOffset" : 5880
        },
        {
            "buffer" : 0,
            "byteLength" : 606,
            "byteOffset" : 7840
        },
        {
            "buffer" : 0,
            "byteLength" : 1020,
            "byteOffset" : 8448
        },
        {
            "buffer" : 0,
            "byteLength" : 1020,
            "byteOffset" : 9468
        },
        {
            "buffer" : 0,
            "byteLength" : 680,
            "byteOffset" : 10488
        },
        {
            "buffer" : 0,
            "byteLength" : 222,
            "byteOffset" : 11168
        },
        {
            "buffer" : 0,
            "byteLength" : 528,
            "byteOffset" : 11392
        },
        {
            "buffer" : 0,
            "byteLength" : 528,
            "byteOffset" : 11920
        },
        {
            "buffer" : 0,
            "byteLength" : 352,
            "byteOffset" : 12448
        },
        {
            "buffer" : 0,
            "byteLength" : 120,
            "byteOffset" : 12800
        }
    ],
    "buffers" : [
        {
            "byteLength" : 12920,
            "uri" : "data:application/octet-stream;base64,"
        }
    ]
}
