{
    "asset" : {
        "generator" : "Khronos Blender glTF 2.0 I/O",
        "version" : "2.0"
    },
    "scene" : 0,
    "scenes" : [
        {
            "name" : "Scene",
            "nodes" : [
                0
            ]
        }
    ],
    "nodes" : [
        {
            "mesh" : 0,
            "name" : "group1753666244",
            "rotation" : [
                0.66559237241745,
                0.01886518858373165,
                0.03181137144565582,
                0.7453985810279846
            ],
            "translation" : [
                -0.0008059442043304443,
                0.0018471777439117432,
                0.001096099615097046
            ]
        }
    ],
    "materials" : [
        {
            "name" : "mat5",
            "pbrMetallicRoughness" : {
                "baseColorFactor" : [
                    0.009999999776482582,
                    0.6100000143051147,
                    0.8999999761581421,
                    1
                ],
                "metallicFactor" : 0,
                "roughnessFactor" : 1
            }
        },
        {
            "name" : "mat22",
            "pbrMetallicRoughness" : {
                "baseColorFactor" : [
                    0.6200000047683716,
                    0.6200000047683716,
                    0.6200000047683716,
                    1
                ],
                "metallicFactor" : 0,
                "roughnessFactor" : 1
            }
        },
        {
            "name" : "mat13",
            "pbrMetallicRoughness" : {
                "baseColorFactor" : [
                    1,
                    0.6000000238418579,
                    0,
                    1
                ],
                "metallicFactor" : 0,
                "roughnessFactor" : 1
            }
        },
        {
            "name" : "mat8",
            "pbrMetallicRoughness" : {
                "baseColorFactor" : [
                    0.9599999785423279,
                    0.25999999046325684,
                    0.20999999344348907,
                    1
                ],
                "metallicFactor" : 0,
                "roughnessFactor" : 1
            }
        }
    ],
    "meshes" : [
        {
            "name" : "group1753666244",
            "primitives" : [
                {
                    "attributes" : {
                        "POSITION" : 0,
                        "NORMAL" : 1,
                        "TEXCOORD_0" : 2
                    },
                    "indices" : 3,
                    "material" : 0
                },
                {
                    "attributes" : {
                        "POSITION" : 4,
                        "NORMAL" : 5,
                        "TEXCOORD_0" : 6
                    },
                    "indices" : 7,
                    "material" : 1
                },
                {
                    "attributes" : {
                        "POSITION" : 8,
                        "NORMAL" : 9,
                        "TEXCOORD_0" : 10
                    },
                    "indices" : 11,
                    "material" : 2
                },
                {
                    "attributes" : {
                        "POSITION" : 12,
                        "NORMAL" : 13,
                        "TEXCOORD_0" : 14
                    },
                    "indices" : 11,
                    "material" : 3
                }
            ]
        }
    ],
    "accessors" : [
        {
            "bufferView" : 0,
            "componentType" : 5126,
            "count" : 94,
            "max" : [
                0.04577130079269409,
                0.0792127251625061,
                0.04016439616680145
            ],
            "min" : [
                -0.04091989994049072,
                -0.04761946201324463,
                -0.03923759236931801
            ],
            "type" : "VEC3"
        },
        {
            "bufferView" : 1,
            "componentType" : 5126,
            "count" : 94,
            "type" : "VEC3"
        },
        {
            "bufferView" : 2,
            "componentType" : 5126,
            "count" : 94,
            "type" : "VEC2"
        },
        {
            "bufferView" : 3,
            "componentType" : 5123,
            "count" : 126,
            "type" : "SCALAR"
        },
        {
            "bufferView" : 4,
            "componentType" : 5126,
            "count" : 94,
            "max" : [
                0.02266809344291687,
                0.06262972950935364,
                0.025734588503837585
            ],
            "min" : [
                -0.024241507053375244,
                -0.050767362117767334,
                -0.03523411229252815
            ],
            "type" : "VEC3"
        },
        {
            "bufferView" : 5,
            "componentType" : 5126,
            "count" : 94,
            "type" : "VEC3"
        },
        {
            "bufferView" : 6,
            "componentType" : 5126,
            "count" : 94,
            "type" : "VEC2"
        },
        {
            "bufferView" : 7,
            "componentType" : 5123,
            "count" : 144,
            "type" : "SCALAR"
        },
        {
            "bufferView" : 8,
            "componentType" : 5126,
            "count" : 4,
            "max" : [
                0.013836115598678589,
                -0.04717656970024109,
                0.021370887756347656
            ],
            "min" : [
                -0.00464099645614624,
                -0.050767362117767334,
                0.011744797229766846
            ],
            "type" : "VEC3"
        },
        {
            "bufferView" : 9,
            "componentType" : 5126,
            "count" : 4,
            "type" : "VEC3"
        },
        {
            "bufferView" : 10,
            "componentType" : 5126,
            "count" : 4,
            "type" : "VEC2"
        },
        {
            "bufferView" : 11,
            "componentType" : 5123,
            "count" : 6,
            "type" : "SCALAR"
        },
        {
            "bufferView" : 12,
            "componentType" : 5126,
            "count" : 4,
            "max" : [
                0.014560192823410034,
                -0.04500997066497803,
                0.012647286057472229
            ],
            "min" : [
                -0.0039205849170684814,
                -0.04861137270927429,
                0.002978399395942688
            ],
            "type" : "VEC3"
        },
        {
            "bufferView" : 13,
            "componentType" : 5126,
            "count" : 4,
            "type" : "VEC3"
        },
        {
            "bufferView" : 14,
            "componentType" : 5126,
            "count" : 4,
            "type" : "VEC2"
        }
    ],
    "bufferViews" : [
        {
            "buffer" : 0,
            "byteLength" : 1128,
            "byteOffset" : 0
        },
        {
            "buffer" : 0,
            "byteLength" : 1128,
            "byteOffset" : 1128
        },
        {
            "buffer" : 0,
            "byteLength" : 752,
            "byteOffset" : 2256
        },
        {
            "buffer" : 0,
            "byteLength" : 252,
            "byteOffset" : 3008
        },
        {
            "buffer" : 0,
            "byteLength" : 1128,
            "byteOffset" : 3260
        },
        {
            "buffer" : 0,
            "byteLength" : 1128,
            "byteOffset" : 4388
        },
        {
            "buffer" : 0,
            "byteLength" : 752,
            "byteOffset" : 5516
        },
        {
            "buffer" : 0,
            "byteLength" : 288,
            "byteOffset" : 6268
        },
        {
            "buffer" : 0,
            "byteLength" : 48,
            "byteOffset" : 6556
        },
        {
            "buffer" : 0,
            "byteLength" : 48,
            "byteOffset" : 6604
        },
        {
            "buffer" : 0,
            "byteLength" : 32,
            "byteOffset" : 6652
        },
        {
            "buffer" : 0,
            "byteLength" : 12,
            "byteOffset" : 6684
        },
        {
            "buffer" : 0,
            "byteLength" : 48,
            "byteOffset" : 6696
        },
        {
            "buffer" : 0,
            "byteLength" : 48,
            "byteOffset" : 6744
        },
        {
            "buffer" : 0,
            "byteLength" : 32,
            "byteOffset" : 6792
        }
    ],
    "buffers" : [
        {
            "byteLength" : 6824,
            "uri" : "data:application/octet-stream;base64,"
        }
    ]
}
