{
    "asset" : {
        "generator" : "Khronos Blender glTF 2.0 I/O",
        "version" : "2.0"
    },
    "scene" : 0,
    "scenes" : [
        {
            "name" : "Scene",
            "nodes" : [
                0
            ]
        }
    ],
    "nodes" : [
        {
            "mesh" : 0,
            "name" : "group241606376",
            "rotation" : [
                0.6367048621177673,
                0.043484628200531006,
                0.000868296017870307,
                0.7698800563812256
            ],
            "translation" : [
                -0.0008059442043304443,
                0.0018471777439117432,
                0.001096099615097046
            ]
        }
    ],
    "materials" : [
        {
            "name" : "mat5",
            "pbrMetallicRoughness" : {
                "baseColorFactor" : [
                    0.009999999776482582,
                    0.6100000143051147,
                    0.8999999761581421,
                    1
                ],
                "metallicFactor" : 0,
                "roughnessFactor" : 1
            }
        },
        {
            "name" : "mat22",
            "pbrMetallicRoughness" : {
                "baseColorFactor" : [
                    0.6200000047683716,
                    0.6200000047683716,
                    0.6200000047683716,
                    1
                ],
                "metallicFactor" : 0,
                "roughnessFactor" : 1
            }
        },
        {
            "name" : "mat13",
            "pbrMetallicRoughness" : {
                "baseColorFactor" : [
                    1,
                    0.6000000238418579,
                    0,
                    1
                ],
                "metallicFactor" : 0,
                "roughnessFactor" : 1
            }
        },
        {
            "name" : "mat8",
            "pbrMetallicRoughness" : {
                "baseColorFactor" : [
                    0.9599999785423279,
                    0.25999999046325684,
                    0.20999999344348907,
                    1
                ],
                "metallicFactor" : 0,
                "roughnessFactor" : 1
            }
        }
    ],
    "meshes" : [
        {
            "name" : "group241606376",
            "primitives" : [
                {
                    "attributes" : {
                        "POSITION" : 0,
                        "NORMAL" : 1,
                        "TEXCOORD_0" : 2
                    },
                    "indices" : 3,
                    "material" : 0
                },
                {
                    "attributes" : {
                        "POSITION" : 4,
                        "NORMAL" : 5,
                        "TEXCOORD_0" : 6
                    },
                    "indices" : 7,
                    "material" : 1
                },
                {
                    "attributes" : {
                        "POSITION" : 8,
                        "NORMAL" : 9,
                        "TEXCOORD_0" : 10
                    },
                    "indices" : 11,
                    "material" : 2
                },
                {
                    "attributes" : {
                        "POSITION" : 12,
                        "NORMAL" : 13,
                        "TEXCOORD_0" : 14
                    },
                    "indices" : 11,
                    "material" : 3
                }
            ]
        }
    ],
    "accessors" : [
        {
            "bufferView" : 0,
            "componentType" : 5126,
            "count" : 94,
            "max" : [
                0.046924442052841187,
                0.08689343929290771,
                0.047415897250175476
            ],
            "min" : [
                -0.043537259101867676,
                -0.051695555448532104,
                -0.03760340437293053
            ],
            "type" : "VEC3"
        },
        {
            "bufferView" : 1,
            "componentType" : 5126,
            "count" : 94,
            "type" : "VEC3"
        },
        {
            "bufferView" : 2,
            "componentType" : 5126,
            "count" : 94,
            "type" : "VEC2"
        },
        {
            "bufferView" : 3,
            "componentType" : 5123,
            "count" : 126,
            "type" : "SCALAR"
        },
        {
            "bufferView" : 4,
            "componentType" : 5126,
            "count" : 94,
            "max" : [
                0.026430338621139526,
                0.06754675507545471,
                0.024896398186683655
            ],
            "min" : [
                -0.02213674783706665,
                -0.05577686429023743,
                -0.03498009964823723
            ],
            "type" : "VEC3"
        },
        {
            "bufferView" : 5,
            "componentType" : 5126,
            "count" : 94,
            "type" : "VEC3"
        },
        {
            "bufferView" : 6,
            "componentType" : 5126,
            "count" : 94,
            "type" : "VEC2"
        },
        {
            "bufferView" : 7,
            "componentType" : 5123,
            "count" : 144,
            "type" : "SCALAR"
        },
        {
            "bufferView" : 8,
            "componentType" : 5126,
            "count" : 4,
            "max" : [
                -0.002818971872329712,
                -0.05075836181640625,
                0.019129499793052673
            ],
            "min" : [
                -0.022092461585998535,
                -0.05448994040489197,
                0.00974699854850769
            ],
            "type" : "VEC3"
        },
        {
            "bufferView" : 9,
            "componentType" : 5126,
            "count" : 4,
            "type" : "VEC3"
        },
        {
            "bufferView" : 10,
            "componentType" : 5126,
            "count" : 4,
            "type" : "VEC2"
        },
        {
            "bufferView" : 11,
            "componentType" : 5123,
            "count" : 6,
            "type" : "SCALAR"
        },
        {
            "bufferView" : 12,
            "componentType" : 5126,
            "count" : 4,
            "max" : [
                -0.0028630495071411133,
                -0.04790195822715759,
                0.009847506880760193
            ],
            "min" : [
                -0.02213674783706665,
                -0.05164775252342224,
                0.00041940808296203613
            ],
            "type" : "VEC3"
        },
        {
            "bufferView" : 13,
            "componentType" : 5126,
            "count" : 4,
            "type" : "VEC3"
        },
        {
            "bufferView" : 14,
            "componentType" : 5126,
            "count" : 4,
            "type" : "VEC2"
        }
    ],
    "bufferViews" : [
        {
            "buffer" : 0,
            "byteLength" : 1128,
            "byteOffset" : 0
        },
        {
            "buffer" : 0,
            "byteLength" : 1128,
            "byteOffset" : 1128
        },
        {
            "buffer" : 0,
            "byteLength" : 752,
            "byteOffset" : 2256
        },
        {
            "buffer" : 0,
            "byteLength" : 252,
            "byteOffset" : 3008
        },
        {
            "buffer" : 0,
            "byteLength" : 1128,
            "byteOffset" : 3260
        },
        {
            "buffer" : 0,
            "byteLength" : 1128,
            "byteOffset" : 4388
        },
        {
            "buffer" : 0,
            "byteLength" : 752,
            "byteOffset" : 5516
        },
        {
            "buffer" : 0,
            "byteLength" : 288,
            "byteOffset" : 6268
        },
        {
            "buffer" : 0,
            "byteLength" : 48,
            "byteOffset" : 6556
        },
        {
            "buffer" : 0,
            "byteLength" : 48,
            "byteOffset" : 6604
        },
        {
            "buffer" : 0,
            "byteLength" : 32,
            "byteOffset" : 6652
        },
        {
            "buffer" : 0,
            "byteLength" : 12,
            "byteOffset" : 6684
        },
        {
            "buffer" : 0,
            "byteLength" : 48,
            "byteOffset" : 6696
        },
        {
            "buffer" : 0,
            "byteLength" : 48,
            "byteOffset" : 6744
        },
        {
            "buffer" : 0,
            "byteLength" : 32,
            "byteOffset" : 6792
        }
    ],
    "buffers" : [
        {
            "byteLength" : 6824,
            "uri" : "data:application/octet-stream;base64,"
        }
    ]
}
