{
    "asset" : {
        "generator" : "Khronos Blender glTF 2.0 I/O",
        "version" : "2.0"
    },
    "scene" : 0,
    "scenes" : [
        {
            "name" : "Scene",
            "nodes" : [
                0
            ]
        }
    ],
    "nodes" : [
        {
            "mesh" : 0,
            "name" : "group1050917466",
            "rotation" : [
                0.016959629952907562,
                0.0006800492410548031,
                -0.010785180144011974,
                0.9997977614402771
            ],
            "translation" : [
                -0.0008059144020080566,
                0.0018471777439117432,
                0.001096099615097046
            ]
        }
    ],
    "materials" : [
        {
            "name" : "mat8",
            "pbrMetallicRoughness" : {
                "baseColorFactor" : [
                    0.9599999785423279,
                    0.25999999046325684,
                    0.20999999344348907,
                    1
                ],
                "metallicFactor" : 0,
                "roughnessFactor" : 1
            }
        },
        {
            "name" : "mat13",
            "pbrMetallicRoughness" : {
                "baseColorFactor" : [
                    1,
                    0.6000000238418579,
                    0,
                    1
                ],
                "metallicFactor" : 0,
                "roughnessFactor" : 1
            }
        }
    ],
    "meshes" : [
        {
            "name" : "group1050917466",
            "primitives" : [
                {
                    "attributes" : {
                        "POSITION" : 0,
                        "NORMAL" : 1,
                        "TEXCOORD_0" : 2
                    },
                    "indices" : 3,
                    "material" : 0
                },
                {
                    "attributes" : {
                        "POSITION" : 4,
                        "NORMAL" : 5,
                        "TEXCOORD_0" : 6
                    },
                    "indices" : 7,
                    "material" : 1
                }
            ]
        }
    ],
    "accessors" : [
        {
            "bufferView" : 0,
            "componentType" : 5126,
            "count" : 73,
            "max" : [
                0.04164230823516846,
                0.07989335060119629,
                0.06932979077100754
            ],
            "min" : [
                -0.04338109493255615,
                -0.08980625867843628,
                -0.024654317647218704
            ],
            "type" : "VEC3"
        },
        {
            "bufferView" : 1,
            "componentType" : 5126,
            "count" : 73,
            "type" : "VEC3"
        },
        {
            "bufferView" : 2,
            "componentType" : 5126,
            "count" : 73,
            "type" : "VEC2"
        },
        {
            "bufferView" : 3,
            "componentType" : 5123,
            "count" : 144,
            "type" : "SCALAR"
        },
        {
            "bufferView" : 4,
            "componentType" : 5126,
            "count" : 76,
            "max" : [
                0.024394214153289795,
                -0.01180875301361084,
                0.012585394084453583
            ],
            "min" : [
                -0.02341759204864502,
                -0.0724247395992279,
                -0.02214810997247696
            ],
            "type" : "VEC3"
        },
        {
            "bufferView" : 5,
            "componentType" : 5126,
            "count" : 76,
            "type" : "VEC3"
        },
        {
            "bufferView" : 6,
            "componentType" : 5126,
            "count" : 76,
            "type" : "VEC2"
        },
        {
            "bufferView" : 7,
            "componentType" : 5123,
            "count" : 108,
            "type" : "SCALAR"
        }
    ],
    "bufferViews" : [
        {
            "buffer" : 0,
            "byteLength" : 876,
            "byteOffset" : 0
        },
        {
            "buffer" : 0,
            "byteLength" : 876,
            "byteOffset" : 876
        },
        {
            "buffer" : 0,
            "byteLength" : 584,
            "byteOffset" : 1752
        },
        {
            "buffer" : 0,
            "byteLength" : 288,
            "byteOffset" : 2336
        },
        {
            "buffer" : 0,
            "byteLength" : 912,
            "byteOffset" : 2624
        },
        {
            "buffer" : 0,
            "byteLength" : 912,
            "byteOffset" : 3536
        },
        {
            "buffer" : 0,
            "byteLength" : 608,
            "byteOffset" : 4448
        },
        {
            "buffer" : 0,
            "byteLength" : 216,
            "byteOffset" : 5056
        }
    ],
    "buffers" : [
        {
            "byteLength" : 5272,
            "uri" : "data:application/octet-stream;base64,"
        }
    ]
}
