{
    "asset" : {
        "generator" : "Khronos Blender glTF 2.0 I/O",
        "version" : "2.0"
    },
    "scene" : 0,
    "scenes" : [
        {
            "name" : "Scene",
            "nodes" : [
                0
            ]
        }
    ],
    "nodes" : [
        {
            "mesh" : 0,
            "name" : "group1752342113",
            "rotation" : [
                0.08090024441480637,
                0.3113968074321747,
                -0.026617279276251793,
                0.9464558959007263
            ],
            "translation" : [
                -0.0008059442043304443,
                0.0018471777439117432,
                0.0010961145162582397
            ]
        }
    ],
    "materials" : [
        {
            "name" : "mat23",
            "pbrMetallicRoughness" : {
                "baseColorFactor" : [
                    0.10000000149011612,
                    0.10000000149011612,
                    0.10000000149011612,
                    1
                ],
                "metallicFactor" : 0,
                "roughnessFactor" : 1
            }
        },
        {
            "name" : "mat16",
            "pbrMetallicRoughness" : {
                "baseColorFactor" : [
                    0.4699999988079071,
                    0.5600000023841858,
                    0.6100000143051147,
                    1
                ],
                "metallicFactor" : 0,
                "roughnessFactor" : 1
            }
        }
    ],
    "meshes" : [
        {
            "name" : "group1752342113",
            "primitives" : [
                {
                    "attributes" : {
                        "POSITION" : 0,
                        "NORMAL" : 1,
                        "TEXCOORD_0" : 2
                    },
                    "indices" : 3,
                    "material" : 0
                },
                {
                    "attributes" : {
                        "POSITION" : 4,
                        "NORMAL" : 5,
                        "TEXCOORD_0" : 6
                    },
                    "indices" : 7,
                    "material" : 1
                }
            ]
        }
    ],
    "accessors" : [
        {
            "bufferView" : 0,
            "componentType" : 5126,
            "count" : 784,
            "max" : [
                0.13426005840301514,
                0.06755129247903824,
                0.02651125192642212
            ],
            "min" : [
                -0.10220174491405487,
                -0.05256503075361252,
                -0.021285519003868103
            ],
            "type" : "VEC3"
        },
        {
            "bufferView" : 1,
            "componentType" : 5126,
            "count" : 784,
            "type" : "VEC3"
        },
        {
            "bufferView" : 2,
            "componentType" : 5126,
            "count" : 784,
            "type" : "VEC2"
        },
        {
            "bufferView" : 3,
            "componentType" : 5123,
            "count" : 1308,
            "type" : "SCALAR"
        },
        {
            "bufferView" : 4,
            "componentType" : 5126,
            "count" : 44,
            "max" : [
                -0.055023640394210815,
                0.0600954107940197,
                0.02891354262828827
            ],
            "min" : [
                -0.09673044085502625,
                0.0024310722947120667,
                -0.025398120284080505
            ],
            "type" : "VEC3"
        },
        {
            "bufferView" : 5,
            "componentType" : 5126,
            "count" : 44,
            "type" : "VEC3"
        },
        {
            "bufferView" : 6,
            "componentType" : 5126,
            "count" : 44,
            "type" : "VEC2"
        },
        {
            "bufferView" : 7,
            "componentType" : 5123,
            "count" : 60,
            "type" : "SCALAR"
        }
    ],
    "bufferViews" : [
        {
            "buffer" : 0,
            "byteLength" : 9408,
            "byteOffset" : 0
        },
        {
            "buffer" : 0,
            "byteLength" : 9408,
            "byteOffset" : 9408
        },
        {
            "buffer" : 0,
            "byteLength" : 6272,
            "byteOffset" : 18816
        },
        {
            "buffer" : 0,
            "byteLength" : 2616,
            "byteOffset" : 25088
        },
        {
            "buffer" : 0,
            "byteLength" : 528,
            "byteOffset" : 27704
        },
        {
            "buffer" : 0,
            "byteLength" : 528,
            "byteOffset" : 28232
        },
        {
            "buffer" : 0,
            "byteLength" : 352,
            "byteOffset" : 28760
        },
        {
            "buffer" : 0,
            "byteLength" : 120,
            "byteOffset" : 29112
        }
    ],
    "buffers" : [
        {
            "byteLength" : 29232,
            "uri" : "data:application/octet-stream;base64,"
        }
    ]
}
