{
    "asset" : {
        "generator" : "Khronos Blender glTF 2.0 I/O",
        "version" : "2.0"
    },
    "scene" : 0,
    "scenes" : [
        {
            "name" : "Scene",
            "nodes" : [
                0
            ]
        }
    ],
    "nodes" : [
        {
            "mesh" : 0,
            "name" : "group371006951",
            "rotation" : [
                0.05631700158119202,
                -0.01651032641530037,
                0.02966427244246006,
                0.9978355765342712
            ],
            "translation" : [
                -0.0008059442043304443,
                0.0018471777439117432,
                0.0010961294174194336
            ]
        }
    ],
    "materials" : [
        {
            "name" : "mat15",
            "pbrMetallicRoughness" : {
                "baseColorFactor" : [
                    0.8100000023841858,
                    0.8500000238418579,
                    0.8600000143051147,
                    1
                ],
                "metallicFactor" : 0,
                "roughnessFactor" : 1
            }
        },
        {
            "name" : "mat3",
            "pbrMetallicRoughness" : {
                "baseColorFactor" : [
                    0.5,
                    0.8700000047683716,
                    0.9200000166893005,
                    1
                ],
                "metallicFactor" : 0,
                "roughnessFactor" : 1
            }
        },
        {
            "name" : "mat5",
            "pbrMetallicRoughness" : {
                "baseColorFactor" : [
                    0.009999999776482582,
                    0.6100000143051147,
                    0.8999999761581421,
                    1
                ],
                "metallicFactor" : 0,
                "roughnessFactor" : 1
            }
        },
        {
            "name" : "mat16",
            "pbrMetallicRoughness" : {
                "baseColorFactor" : [
                    0.4699999988079071,
                    0.5600000023841858,
                    0.6100000143051147,
                    1
                ],
                "metallicFactor" : 0,
                "roughnessFactor" : 1
            }
        }
    ],
    "meshes" : [
        {
            "name" : "group371006951",
            "primitives" : [
                {
                    "attributes" : {
                        "POSITION" : 0,
                        "NORMAL" : 1,
                        "TEXCOORD_0" : 2
                    },
                    "indices" : 3,
                    "material" : 0
                },
                {
                    "attributes" : {
                        "POSITION" : 4,
                        "NORMAL" : 5,
                        "TEXCOORD_0" : 6
                    },
                    "indices" : 7,
                    "material" : 1
                },
                {
                    "attributes" : {
                        "POSITION" : 8,
                        "NORMAL" : 9,
                        "TEXCOORD_0" : 10
                    },
                    "indices" : 11,
                    "material" : 2
                },
                {
                    "attributes" : {
                        "POSITION" : 12,
                        "NORMAL" : 13,
                        "TEXCOORD_0" : 14
                    },
                    "indices" : 15,
                    "material" : 3
                }
            ]
        }
    ],
    "accessors" : [
        {
            "bufferView" : 0,
            "componentType" : 5126,
            "count" : 200,
            "max" : [
                0.04055783152580261,
                0.0633244663476944,
                0.006437182426452637
            ],
            "min" : [
                -0.04241526126861572,
                -0.060569025576114655,
                -0.0418165922164917
            ],
            "type" : "VEC3"
        },
        {
            "bufferView" : 1,
            "componentType" : 5126,
            "count" : 200,
            "type" : "VEC3"
        },
        {
            "bufferView" : 2,
            "componentType" : 5126,
            "count" : 200,
            "type" : "VEC2"
        },
        {
            "bufferView" : 3,
            "componentType" : 5123,
            "count" : 264,
            "type" : "SCALAR"
        },
        {
            "bufferView" : 4,
            "componentType" : 5126,
            "count" : 68,
            "max" : [
                0.03513804078102112,
                0.009864270687103271,
                -0.013147592544555664
            ],
            "min" : [
                -0.03315046429634094,
                -0.006845727562904358,
                -0.03013288974761963
            ],
            "type" : "VEC3"
        },
        {
            "bufferView" : 5,
            "componentType" : 5126,
            "count" : 68,
            "type" : "VEC3"
        },
        {
            "bufferView" : 6,
            "componentType" : 5126,
            "count" : 68,
            "type" : "VEC2"
        },
        {
            "bufferView" : 7,
            "componentType" : 5123,
            "count" : 96,
            "type" : "SCALAR"
        },
        {
            "bufferView" : 8,
            "componentType" : 5126,
            "count" : 1184,
            "max" : [
                0.07937182486057281,
                0.10234847664833069,
                0.07347023487091064
            ],
            "min" : [
                -0.07969287037849426,
                -0.07678148150444031,
                -0.034848928451538086
            ],
            "type" : "VEC3"
        },
        {
            "bufferView" : 9,
            "componentType" : 5126,
            "count" : 1184,
            "type" : "VEC3"
        },
        {
            "bufferView" : 10,
            "componentType" : 5126,
            "count" : 1184,
            "type" : "VEC2"
        },
        {
            "bufferView" : 11,
            "componentType" : 5123,
            "count" : 1668,
            "type" : "SCALAR"
        },
        {
            "bufferView" : 12,
            "componentType" : 5126,
            "count" : 48,
            "max" : [
                0.04101422429084778,
                -0.010487735271453857,
                -0.015988707542419434
            ],
            "min" : [
                -0.04239526391029358,
                -0.05304902791976929,
                -0.030838370323181152
            ],
            "type" : "VEC3"
        },
        {
            "bufferView" : 13,
            "componentType" : 5126,
            "count" : 48,
            "type" : "VEC3"
        },
        {
            "bufferView" : 14,
            "componentType" : 5126,
            "count" : 48,
            "type" : "VEC2"
        },
        {
            "bufferView" : 15,
            "componentType" : 5123,
            "count" : 72,
            "type" : "SCALAR"
        }
    ],
    "bufferViews" : [
        {
            "buffer" : 0,
            "byteLength" : 2400,
            "byteOffset" : 0
        },
        {
            "buffer" : 0,
            "byteLength" : 2400,
            "byteOffset" : 2400
        },
        {
            "buffer" : 0,
            "byteLength" : 1600,
            "byteOffset" : 4800
        },
        {
            "buffer" : 0,
            "byteLength" : 528,
            "byteOffset" : 6400
        },
        {
            "buffer" : 0,
            "byteLength" : 816,
            "byteOffset" : 6928
        },
        {
            "buffer" : 0,
            "byteLength" : 816,
            "byteOffset" : 7744
        },
        {
            "buffer" : 0,
            "byteLength" : 544,
            "byteOffset" : 8560
        },
        {
            "buffer" : 0,
            "byteLength" : 192,
            "byteOffset" : 9104
        },
        {
            "buffer" : 0,
            "byteLength" : 14208,
            "byteOffset" : 9296
        },
        {
            "buffer" : 0,
            "byteLength" : 14208,
            "byteOffset" : 23504
        },
        {
            "buffer" : 0,
            "byteLength" : 9472,
            "byteOffset" : 37712
        },
        {
            "buffer" : 0,
            "byteLength" : 3336,
            "byteOffset" : 47184
        },
        {
            "buffer" : 0,
            "byteLength" : 576,
            "byteOffset" : 50520
        },
        {
            "buffer" : 0,
            "byteLength" : 576,
            "byteOffset" : 51096
        },
        {
            "buffer" : 0,
            "byteLength" : 384,
            "byteOffset" : 51672
        },
        {
            "buffer" : 0,
            "byteLength" : 144,
            "byteOffset" : 52056
        }
    ],
    "buffers" : [
        {
            "byteLength" : 52200,
            "uri" : "data:application/octet-stream;base64,"
        }
    ]
}
