{
    "asset" : {
        "generator" : "Khronos Blender glTF 2.0 I/O",
        "version" : "2.0"
    },
    "scene" : 0,
    "scenes" : [
        {
            "name" : "Scene",
            "nodes" : [
                0
            ]
        }
    ],
    "nodes" : [
        {
            "mesh" : 0,
            "name" : "group2066373740.001",
            "rotation" : [
                0.10359669476747513,
                -0.023371685296297073,
                0.08693326264619827,
                0.9905372858047485
            ],
            "scale" : [
                0.4327586889266968,
                0.432758629322052,
                0.432758629322052
            ],
            "translation" : [
                -0.0008059442043304443,
                0.0018472075462341309,
                0.0010961294174194336
            ]
        }
    ],
    "materials" : [
        {
            "name" : "mat15.001",
            "pbrMetallicRoughness" : {
                "baseColorFactor" : [
                    0.8100000023841858,
                    0.8500000238418579,
                    0.8600000143051147,
                    1
                ],
                "metallicFactor" : 0,
                "roughnessFactor" : 1
            }
        },
        {
            "name" : "mat14.001",
            "pbrMetallicRoughness" : {
                "baseColorFactor" : [
                    1,
                    0.3400000035762787,
                    0.12999999523162842,
                    1
                ],
                "metallicFactor" : 0,
                "roughnessFactor" : 1
            }
        }
    ],
    "meshes" : [
        {
            "name" : "group2066373740.001",
            "primitives" : [
                {
                    "attributes" : {
                        "POSITION" : 0,
                        "NORMAL" : 1,
                        "TEXCOORD_0" : 2
                    },
                    "indices" : 3,
                    "material" : 0
                },
                {
                    "attributes" : {
                        "POSITION" : 4,
                        "NORMAL" : 5,
                        "TEXCOORD_0" : 6
                    },
                    "indices" : 7,
                    "material" : 1
                }
            ]
        }
    ],
    "accessors" : [
        {
            "bufferView" : 0,
            "componentType" : 5126,
            "count" : 76,
            "max" : [
                0.09417948126792908,
                0.07730865478515625,
                0.024102985858917236
            ],
            "min" : [
                -0.07760307192802429,
                -0.09519779682159424,
                -0.008814871311187744
            ],
            "type" : "VEC3"
        },
        {
            "bufferView" : 1,
            "componentType" : 5126,
            "count" : 76,
            "type" : "VEC3"
        },
        {
            "bufferView" : 2,
            "componentType" : 5126,
            "count" : 76,
            "type" : "VEC2"
        },
        {
            "bufferView" : 3,
            "componentType" : 5123,
            "count" : 108,
            "type" : "SCALAR"
        },
        {
            "bufferView" : 4,
            "componentType" : 5126,
            "count" : 894,
            "max" : [
                0.08993229269981384,
                0.07068800926208496,
                0.020035982131958008
            ],
            "min" : [
                -0.07541677355766296,
                -0.09057414531707764,
                -0.015441417694091797
            ],
            "type" : "VEC3"
        },
        {
            "bufferView" : 5,
            "componentType" : 5126,
            "count" : 894,
            "type" : "VEC3"
        },
        {
            "bufferView" : 6,
            "componentType" : 5126,
            "count" : 894,
            "type" : "VEC2"
        },
        {
            "bufferView" : 7,
            "componentType" : 5123,
            "count" : 1194,
            "type" : "SCALAR"
        }
    ],
    "bufferViews" : [
        {
            "buffer" : 0,
            "byteLength" : 912,
            "byteOffset" : 0
        },
        {
            "buffer" : 0,
            "byteLength" : 912,
            "byteOffset" : 912
        },
        {
            "buffer" : 0,
            "byteLength" : 608,
            "byteOffset" : 1824
        },
        {
            "buffer" : 0,
            "byteLength" : 216,
            "byteOffset" : 2432
        },
        {
            "buffer" : 0,
            "byteLength" : 10728,
            "byteOffset" : 2648
        },
        {
            "buffer" : 0,
            "byteLength" : 10728,
            "byteOffset" : 13376
        },
        {
            "buffer" : 0,
            "byteLength" : 7152,
            "byteOffset" : 24104
        },
        {
            "buffer" : 0,
            "byteLength" : 2388,
            "byteOffset" : 31256
        }
    ],
    "buffers" : [
        {
            "byteLength" : 33644,
            "uri" : "data:application/octet-stream;base64,"
        }
    ]
}
