{
    "asset" : {
        "generator" : "Khronos Blender glTF 2.0 I/O",
        "version" : "2.0"
    },
    "scene" : 0,
    "scenes" : [
        {
            "name" : "Scene",
            "nodes" : [
                0
            ]
        }
    ],
    "nodes" : [
        {
            "mesh" : 0,
            "name" : "group2066373740",
            "rotation" : [
                0.019157739356160164,
                -0.02644198387861252,
                0.07557086646556854,
                0.9966057538986206
            ],
            "scale" : [
                0.43275871872901917,
                0.432758629322052,
                0.432758629322052
            ],
            "translation" : [
                -0.000805974006652832,
                0.0018472075462341309,
                0.0010961294174194336
            ]
        }
    ],
    "materials" : [
        {
            "name" : "mat15",
            "pbrMetallicRoughness" : {
                "baseColorFactor" : [
                    0.8100000023841858,
                    0.8500000238418579,
                    0.8600000143051147,
                    1
                ],
                "metallicFactor" : 0,
                "roughnessFactor" : 1
            }
        },
        {
            "name" : "mat14",
            "pbrMetallicRoughness" : {
                "baseColorFactor" : [
                    1,
                    0.3400000035762787,
                    0.12999999523162842,
                    1
                ],
                "metallicFactor" : 0,
                "roughnessFactor" : 1
            }
        }
    ],
    "meshes" : [
        {
            "name" : "group2066373740",
            "primitives" : [
                {
                    "attributes" : {
                        "POSITION" : 0,
                        "NORMAL" : 1,
                        "TEXCOORD_0" : 2
                    },
                    "indices" : 3,
                    "material" : 0
                },
                {
                    "attributes" : {
                        "POSITION" : 4,
                        "NORMAL" : 5,
                        "TEXCOORD_0" : 6
                    },
                    "indices" : 7,
                    "material" : 1
                }
            ]
        }
    ],
    "accessors" : [
        {
            "bufferView" : 0,
            "componentType" : 5126,
            "count" : 76,
            "max" : [
                0.09417933225631714,
                0.07730841636657715,
                0.02410280704498291
            ],
            "min" : [
                -0.077603280544281,
                -0.09519803524017334,
                -0.00881505012512207
            ],
            "type" : "VEC3"
        },
        {
            "bufferView" : 1,
            "componentType" : 5126,
            "count" : 76,
            "type" : "VEC3"
        },
        {
            "bufferView" : 2,
            "componentType" : 5126,
            "count" : 76,
            "type" : "VEC2"
        },
        {
            "bufferView" : 3,
            "componentType" : 5123,
            "count" : 108,
            "type" : "SCALAR"
        },
        {
            "bufferView" : 4,
            "componentType" : 5126,
            "count" : 894,
            "max" : [
                0.0899321436882019,
                0.07068777084350586,
                0.02003580331802368
            ],
            "min" : [
                -0.07541698217391968,
                -0.09057438373565674,
                -0.015441596508026123
            ],
            "type" : "VEC3"
        },
        {
            "bufferView" : 5,
            "componentType" : 5126,
            "count" : 894,
            "type" : "VEC3"
        },
        {
            "bufferView" : 6,
            "componentType" : 5126,
            "count" : 894,
            "type" : "VEC2"
        },
        {
            "bufferView" : 7,
            "componentType" : 5123,
            "count" : 1194,
            "type" : "SCALAR"
        }
    ],
    "bufferViews" : [
        {
            "buffer" : 0,
            "byteLength" : 912,
            "byteOffset" : 0
        },
        {
            "buffer" : 0,
            "byteLength" : 912,
            "byteOffset" : 912
        },
        {
            "buffer" : 0,
            "byteLength" : 608,
            "byteOffset" : 1824
        },
        {
            "buffer" : 0,
            "byteLength" : 216,
            "byteOffset" : 2432
        },
        {
            "buffer" : 0,
            "byteLength" : 10728,
            "byteOffset" : 2648
        },
        {
            "buffer" : 0,
            "byteLength" : 10728,
            "byteOffset" : 13376
        },
        {
            "buffer" : 0,
            "byteLength" : 7152,
            "byteOffset" : 24104
        },
        {
            "buffer" : 0,
            "byteLength" : 2388,
            "byteOffset" : 31256
        }
    ],
    "buffers" : [
        {
            "byteLength" : 33644,
            "uri" : "data:application/octet-stream;base64,"
        }
    ]
}
