{
    "asset" : {
        "generator" : "Khronos Blender glTF 2.0 I/O",
        "version" : "2.0"
    },
    "scene" : 0,
    "scenes" : [
        {
            "name" : "Scene",
            "nodes" : [
                0
            ]
        }
    ],
    "nodes" : [
        {
            "mesh" : 0,
            "name" : "group873197017",
            "rotation" : [
                0.0004974481416866183,
                -0.05131342262029648,
                0.048404842615127563,
                0.9975088238716125
            ],
            "translation" : [
                -0.0008059442043304443,
                0.0018471777439117432,
                0.001096099615097046
            ]
        }
    ],
    "materials" : [
        {
            "name" : "mat5",
            "pbrMetallicRoughness" : {
                "baseColorFactor" : [
                    0.009999999776482582,
                    0.6100000143051147,
                    0.8999999761581421,
                    1
                ],
                "metallicFactor" : 0,
                "roughnessFactor" : 1
            }
        },
        {
            "name" : "mat22",
            "pbrMetallicRoughness" : {
                "baseColorFactor" : [
                    0.6200000047683716,
                    0.6200000047683716,
                    0.6200000047683716,
                    1
                ],
                "metallicFactor" : 0,
                "roughnessFactor" : 1
            }
        },
        {
            "name" : "mat23",
            "pbrMetallicRoughness" : {
                "baseColorFactor" : [
                    0.10000000149011612,
                    0.10000000149011612,
                    0.10000000149011612,
                    1
                ],
                "metallicFactor" : 0,
                "roughnessFactor" : 1
            }
        },
        {
            "name" : "mat15",
            "pbrMetallicRoughness" : {
                "baseColorFactor" : [
                    0.8100000023841858,
                    0.8500000238418579,
                    0.8600000143051147,
                    1
                ],
                "metallicFactor" : 0,
                "roughnessFactor" : 1
            }
        }
    ],
    "meshes" : [
        {
            "name" : "group873197017",
            "primitives" : [
                {
                    "attributes" : {
                        "POSITION" : 0,
                        "NORMAL" : 1,
                        "TEXCOORD_0" : 2
                    },
                    "indices" : 3,
                    "material" : 0
                },
                {
                    "attributes" : {
                        "POSITION" : 4,
                        "NORMAL" : 5,
                        "TEXCOORD_0" : 6
                    },
                    "indices" : 7,
                    "material" : 1
                },
                {
                    "attributes" : {
                        "POSITION" : 8,
                        "NORMAL" : 9,
                        "TEXCOORD_0" : 10
                    },
                    "indices" : 11,
                    "material" : 2
                },
                {
                    "attributes" : {
                        "POSITION" : 12,
                        "NORMAL" : 13,
                        "TEXCOORD_0" : 14
                    },
                    "indices" : 15,
                    "material" : 3
                }
            ]
        }
    ],
    "accessors" : [
        {
            "bufferView" : 0,
            "componentType" : 5126,
            "count" : 192,
            "max" : [
                0.024024561047554016,
                0.10907530784606934,
                0.04844748228788376
            ],
            "min" : [
                -0.06638404726982117,
                -0.12827959656715393,
                -0.04919350519776344
            ],
            "type" : "VEC3"
        },
        {
            "bufferView" : 1,
            "componentType" : 5126,
            "count" : 192,
            "type" : "VEC3"
        },
        {
            "bufferView" : 2,
            "componentType" : 5126,
            "count" : 192,
            "type" : "VEC2"
        },
        {
            "bufferView" : 3,
            "componentType" : 5123,
            "count" : 330,
            "type" : "SCALAR"
        },
        {
            "bufferView" : 4,
            "componentType" : 5126,
            "count" : 96,
            "max" : [
                0.003243356943130493,
                0.08971911668777466,
                -0.008967913687229156
            ],
            "min" : [
                -0.045945748686790466,
                -0.06110319495201111,
                -0.04224157705903053
            ],
            "type" : "VEC3"
        },
        {
            "bufferView" : 5,
            "componentType" : 5126,
            "count" : 96,
            "type" : "VEC3"
        },
        {
            "bufferView" : 6,
            "componentType" : 5126,
            "count" : 96,
            "type" : "VEC2"
        },
        {
            "bufferView" : 7,
            "componentType" : 5123,
            "count" : 144,
            "type" : "SCALAR"
        },
        {
            "bufferView" : 8,
            "componentType" : 5126,
            "count" : 144,
            "max" : [
                0.025770962238311768,
                0.05907702445983887,
                0.04589027911424637
            ],
            "min" : [
                -0.05146384239196777,
                -0.08140090107917786,
                -0.028417620807886124
            ],
            "type" : "VEC3"
        },
        {
            "bufferView" : 9,
            "componentType" : 5126,
            "count" : 144,
            "type" : "VEC3"
        },
        {
            "bufferView" : 10,
            "componentType" : 5126,
            "count" : 144,
            "type" : "VEC2"
        },
        {
            "bufferView" : 11,
            "componentType" : 5123,
            "count" : 264,
            "type" : "SCALAR"
        },
        {
            "bufferView" : 12,
            "componentType" : 5126,
            "count" : 842,
            "max" : [
                0.04334147274494171,
                0.10913842916488647,
                0.033201687037944794
            ],
            "min" : [
                -0.014457836747169495,
                -0.06806719303131104,
                -0.013643015176057816
            ],
            "type" : "VEC3"
        },
        {
            "bufferView" : 13,
            "componentType" : 5126,
            "count" : 842,
            "type" : "VEC3"
        },
        {
            "bufferView" : 14,
            "componentType" : 5126,
            "count" : 842,
            "type" : "VEC2"
        },
        {
            "bufferView" : 15,
            "componentType" : 5123,
            "count" : 1284,
            "type" : "SCALAR"
        }
    ],
    "bufferViews" : [
        {
            "buffer" : 0,
            "byteLength" : 2304,
            "byteOffset" : 0
        },
        {
            "buffer" : 0,
            "byteLength" : 2304,
            "byteOffset" : 2304
        },
        {
            "buffer" : 0,
            "byteLength" : 1536,
            "byteOffset" : 4608
        },
        {
            "buffer" : 0,
            "byteLength" : 660,
            "byteOffset" : 6144
        },
        {
            "buffer" : 0,
            "byteLength" : 1152,
            "byteOffset" : 6804
        },
        {
            "buffer" : 0,
            "byteLength" : 1152,
            "byteOffset" : 7956
        },
        {
            "buffer" : 0,
            "byteLength" : 768,
            "byteOffset" : 9108
        },
        {
            "buffer" : 0,
            "byteLength" : 288,
            "byteOffset" : 9876
        },
        {
            "buffer" : 0,
            "byteLength" : 1728,
            "byteOffset" : 10164
        },
        {
            "buffer" : 0,
            "byteLength" : 1728,
            "byteOffset" : 11892
        },
        {
            "buffer" : 0,
            "byteLength" : 1152,
            "byteOffset" : 13620
        },
        {
            "buffer" : 0,
            "byteLength" : 528,
            "byteOffset" : 14772
        },
        {
            "buffer" : 0,
            "byteLength" : 10104,
            "byteOffset" : 15300
        },
        {
            "buffer" : 0,
            "byteLength" : 10104,
            "byteOffset" : 25404
        },
        {
            "buffer" : 0,
            "byteLength" : 6736,
            "byteOffset" : 35508
        },
        {
            "buffer" : 0,
            "byteLength" : 2568,
            "byteOffset" : 42244
        }
    ],
    "buffers" : [
        {
            "byteLength" : 44812,
            "uri" : "data:application/octet-stream;base64,"
        }
    ]
}
