{
    "asset" : {
        "generator" : "Khronos Blender glTF 2.0 I/O",
        "version" : "2.0"
    },
    "scene" : 0,
    "scenes" : [
        {
            "name" : "Scene",
            "nodes" : [
                0
            ]
        }
    ],
    "nodes" : [
        {
            "mesh" : 0,
            "name" : "group1744198726",
            "rotation" : [
                0.030300453305244446,
                0.040223680436611176,
                0.04192265495657921,
                0.9978510141372681
            ],
            "translation" : [
                -0.0008059367537498474,
                0.0018471777439117432,
                0.001096099615097046
            ]
        }
    ],
    "materials" : [
        {
            "name" : "mat5",
            "pbrMetallicRoughness" : {
                "baseColorFactor" : [
                    0.009999999776482582,
                    0.6100000143051147,
                    0.8999999761581421,
                    1
                ],
                "metallicFactor" : 0,
                "roughnessFactor" : 1
            }
        },
        {
            "name" : "mat22",
            "pbrMetallicRoughness" : {
                "baseColorFactor" : [
                    0.6200000047683716,
                    0.6200000047683716,
                    0.6200000047683716,
                    1
                ],
                "metallicFactor" : 0,
                "roughnessFactor" : 1
            }
        },
        {
            "name" : "mat23",
            "pbrMetallicRoughness" : {
                "baseColorFactor" : [
                    0.10000000149011612,
                    0.10000000149011612,
                    0.10000000149011612,
                    1
                ],
                "metallicFactor" : 0,
                "roughnessFactor" : 1
            }
        },
        {
            "name" : "mat15",
            "pbrMetallicRoughness" : {
                "baseColorFactor" : [
                    0.8100000023841858,
                    0.8500000238418579,
                    0.8600000143051147,
                    1
                ],
                "metallicFactor" : 0,
                "roughnessFactor" : 1
            }
        }
    ],
    "meshes" : [
        {
            "name" : "group1744198726",
            "primitives" : [
                {
                    "attributes" : {
                        "POSITION" : 0,
                        "NORMAL" : 1,
                        "TEXCOORD_0" : 2
                    },
                    "indices" : 3,
                    "material" : 0
                },
                {
                    "attributes" : {
                        "POSITION" : 4,
                        "NORMAL" : 5,
                        "TEXCOORD_0" : 6
                    },
                    "indices" : 7,
                    "material" : 1
                },
                {
                    "attributes" : {
                        "POSITION" : 8,
                        "NORMAL" : 9,
                        "TEXCOORD_0" : 10
                    },
                    "indices" : 11,
                    "material" : 2
                },
                {
                    "attributes" : {
                        "POSITION" : 12,
                        "NORMAL" : 13,
                        "TEXCOORD_0" : 14
                    },
                    "indices" : 15,
                    "material" : 3
                }
            ]
        }
    ],
    "accessors" : [
        {
            "bufferView" : 0,
            "componentType" : 5126,
            "count" : 192,
            "max" : [
                0.05990615859627724,
                0.10364079475402832,
                0.04298912361264229
            ],
            "min" : [
                -0.02272699400782585,
                -0.12977993488311768,
                -0.04750816524028778
            ],
            "type" : "VEC3"
        },
        {
            "bufferView" : 1,
            "componentType" : 5126,
            "count" : 192,
            "type" : "VEC3"
        },
        {
            "bufferView" : 2,
            "componentType" : 5126,
            "count" : 192,
            "type" : "VEC2"
        },
        {
            "bufferView" : 3,
            "componentType" : 5123,
            "count" : 330,
            "type" : "SCALAR"
        },
        {
            "bufferView" : 4,
            "componentType" : 5126,
            "count" : 96,
            "max" : [
                0.043818194419145584,
                0.08586809039115906,
                -0.010557368397712708
            ],
            "min" : [
                -0.0035167038440704346,
                -0.06262412667274475,
                -0.042334139347076416
            ],
            "type" : "VEC3"
        },
        {
            "bufferView" : 5,
            "componentType" : 5126,
            "count" : 96,
            "type" : "VEC3"
        },
        {
            "bufferView" : 6,
            "componentType" : 5126,
            "count" : 96,
            "type" : "VEC2"
        },
        {
            "bufferView" : 7,
            "componentType" : 5123,
            "count" : 138,
            "type" : "SCALAR"
        },
        {
            "bufferView" : 8,
            "componentType" : 5126,
            "count" : 144,
            "max" : [
                0.049217429012060165,
                0.05666127800941467,
                0.04344173148274422
            ],
            "min" : [
                -0.02834484353661537,
                -0.0851111114025116,
                -0.027237877249717712
            ],
            "type" : "VEC3"
        },
        {
            "bufferView" : 9,
            "componentType" : 5126,
            "count" : 144,
            "type" : "VEC3"
        },
        {
            "bufferView" : 10,
            "componentType" : 5126,
            "count" : 144,
            "type" : "VEC2"
        },
        {
            "bufferView" : 11,
            "componentType" : 5123,
            "count" : 264,
            "type" : "SCALAR"
        },
        {
            "bufferView" : 12,
            "componentType" : 5126,
            "count" : 842,
            "max" : [
                0.01118156686425209,
                0.11219647526741028,
                0.03092353418469429
            ],
            "min" : [
                -0.03242095187306404,
                -0.06724971532821655,
                -0.012751668691635132
            ],
            "type" : "VEC3"
        },
        {
            "bufferView" : 13,
            "componentType" : 5126,
            "count" : 842,
            "type" : "VEC3"
        },
        {
            "bufferView" : 14,
            "componentType" : 5126,
            "count" : 842,
            "type" : "VEC2"
        },
        {
            "bufferView" : 15,
            "componentType" : 5123,
            "count" : 1284,
            "type" : "SCALAR"
        }
    ],
    "bufferViews" : [
        {
            "buffer" : 0,
            "byteLength" : 2304,
            "byteOffset" : 0
        },
        {
            "buffer" : 0,
            "byteLength" : 2304,
            "byteOffset" : 2304
        },
        {
            "buffer" : 0,
            "byteLength" : 1536,
            "byteOffset" : 4608
        },
        {
            "buffer" : 0,
            "byteLength" : 660,
            "byteOffset" : 6144
        },
        {
            "buffer" : 0,
            "byteLength" : 1152,
            "byteOffset" : 6804
        },
        {
            "buffer" : 0,
            "byteLength" : 1152,
            "byteOffset" : 7956
        },
        {
            "buffer" : 0,
            "byteLength" : 768,
            "byteOffset" : 9108
        },
        {
            "buffer" : 0,
            "byteLength" : 276,
            "byteOffset" : 9876
        },
        {
            "buffer" : 0,
            "byteLength" : 1728,
            "byteOffset" : 10152
        },
        {
            "buffer" : 0,
            "byteLength" : 1728,
            "byteOffset" : 11880
        },
        {
            "buffer" : 0,
            "byteLength" : 1152,
            "byteOffset" : 13608
        },
        {
            "buffer" : 0,
            "byteLength" : 528,
            "byteOffset" : 14760
        },
        {
            "buffer" : 0,
            "byteLength" : 10104,
            "byteOffset" : 15288
        },
        {
            "buffer" : 0,
            "byteLength" : 10104,
            "byteOffset" : 25392
        },
        {
            "buffer" : 0,
            "byteLength" : 6736,
            "byteOffset" : 35496
        },
        {
            "buffer" : 0,
            "byteLength" : 2568,
            "byteOffset" : 42232
        }
    ],
    "buffers" : [
        {
            "byteLength" : 44800,
            "uri" : "data:application/octet-stream;base64,"
        }
    ]
}
