{
    "asset" : {
        "generator" : "Khronos Blender glTF 2.0 I/O",
        "version" : "2.0"
    },
    "scene" : 0,
    "scenes" : [
        {
            "name" : "Scene",
            "nodes" : [
                0
            ]
        }
    ],
    "nodes" : [
        {
            "mesh" : 0,
            "name" : "group505031281",
            "rotation" : [
                0.1459479182958603,
                -0.009835931472480297,
                0.023564696311950684,
                0.9889627695083618
            ],
            "translation" : [
                -0.0008059367537498474,
                0.0018471777439117432,
                0.0010961070656776428
            ]
        }
    ],
    "materials" : [
        {
            "name" : "mat8",
            "pbrMetallicRoughness" : {
                "baseColorFactor" : [
                    0.9599999785423279,
                    0.25999999046325684,
                    0.20999999344348907,
                    1
                ],
                "metallicFactor" : 0,
                "roughnessFactor" : 1
            }
        },
        {
            "name" : "mat16",
            "pbrMetallicRoughness" : {
                "baseColorFactor" : [
                    0.4699999988079071,
                    0.5600000023841858,
                    0.6100000143051147,
                    1
                ],
                "metallicFactor" : 0,
                "roughnessFactor" : 1
            }
        }
    ],
    "meshes" : [
        {
            "name" : "group505031281",
            "primitives" : [
                {
                    "attributes" : {
                        "POSITION" : 0,
                        "NORMAL" : 1,
                        "TEXCOORD_0" : 2
                    },
                    "indices" : 3,
                    "material" : 0
                },
                {
                    "attributes" : {
                        "POSITION" : 4,
                        "NORMAL" : 5,
                        "TEXCOORD_0" : 6
                    },
                    "indices" : 7,
                    "material" : 1
                }
            ]
        }
    ],
    "accessors" : [
        {
            "bufferView" : 0,
            "componentType" : 5126,
            "count" : 68,
            "max" : [
                0.03789083659648895,
                0.008764952421188354,
                0.03824932128190994
            ],
            "min" : [
                -0.040195219218730927,
                -0.13277246057987213,
                -0.04518026113510132
            ],
            "type" : "VEC3"
        },
        {
            "bufferView" : 1,
            "componentType" : 5126,
            "count" : 68,
            "type" : "VEC3"
        },
        {
            "bufferView" : 2,
            "componentType" : 5126,
            "count" : 68,
            "type" : "VEC2"
        },
        {
            "bufferView" : 3,
            "componentType" : 5123,
            "count" : 84,
            "type" : "SCALAR"
        },
        {
            "bufferView" : 4,
            "componentType" : 5126,
            "count" : 611,
            "max" : [
                0.06132565438747406,
                0.14386102557182312,
                0.03646162897348404
            ],
            "min" : [
                -0.057504668831825256,
                -0.058277860283851624,
                -0.04513388127088547
            ],
            "type" : "VEC3"
        },
        {
            "bufferView" : 5,
            "componentType" : 5126,
            "count" : 611,
            "type" : "VEC3"
        },
        {
            "bufferView" : 6,
            "componentType" : 5126,
            "count" : 611,
            "type" : "VEC2"
        },
        {
            "bufferView" : 7,
            "componentType" : 5123,
            "count" : 918,
            "type" : "SCALAR"
        }
    ],
    "bufferViews" : [
        {
            "buffer" : 0,
            "byteLength" : 816,
            "byteOffset" : 0
        },
        {
            "buffer" : 0,
            "byteLength" : 816,
            "byteOffset" : 816
        },
        {
            "buffer" : 0,
            "byteLength" : 544,
            "byteOffset" : 1632
        },
        {
            "buffer" : 0,
            "byteLength" : 168,
            "byteOffset" : 2176
        },
        {
            "buffer" : 0,
            "byteLength" : 7332,
            "byteOffset" : 2344
        },
        {
            "buffer" : 0,
            "byteLength" : 7332,
            "byteOffset" : 9676
        },
        {
            "buffer" : 0,
            "byteLength" : 4888,
            "byteOffset" : 17008
        },
        {
            "buffer" : 0,
            "byteLength" : 1836,
            "byteOffset" : 21896
        }
    ],
    "buffers" : [
        {
            "byteLength" : 23732,
            "uri" : "data:application/octet-stream;base64,"
        }
    ]
}
