{
    "asset" : {
        "generator" : "Khronos Blender glTF 2.0 I/O",
        "version" : "2.0"
    },
    "scene" : 0,
    "scenes" : [
        {
            "name" : "Scene",
            "nodes" : [
                0
            ]
        }
    ],
    "nodes" : [
        {
            "mesh" : 0,
            "name" : "group441067920",
            "rotation" : [
                0.08431622385978699,
                -0.014085235074162483,
                0.03898744657635689,
                0.9955765008926392
            ],
            "translation" : [
                -0.0008059404790401459,
                0.0018471777439117432,
                0.0010961070656776428
            ]
        }
    ],
    "materials" : [
        {
            "name" : "mat8",
            "pbrMetallicRoughness" : {
                "baseColorFactor" : [
                    0.9599999785423279,
                    0.25999999046325684,
                    0.20999999344348907,
                    1
                ],
                "metallicFactor" : 0,
                "roughnessFactor" : 1
            }
        },
        {
            "name" : "mat16",
            "pbrMetallicRoughness" : {
                "baseColorFactor" : [
                    0.4699999988079071,
                    0.5600000023841858,
                    0.6100000143051147,
                    1
                ],
                "metallicFactor" : 0,
                "roughnessFactor" : 1
            }
        }
    ],
    "meshes" : [
        {
            "name" : "group441067920",
            "primitives" : [
                {
                    "attributes" : {
                        "POSITION" : 0,
                        "NORMAL" : 1,
                        "TEXCOORD_0" : 2
                    },
                    "indices" : 3,
                    "material" : 0
                },
                {
                    "attributes" : {
                        "POSITION" : 4,
                        "NORMAL" : 5,
                        "TEXCOORD_0" : 6
                    },
                    "indices" : 7,
                    "material" : 1
                }
            ]
        }
    ],
    "accessors" : [
        {
            "bufferView" : 0,
            "componentType" : 5126,
            "count" : 68,
            "max" : [
                0.0332418754696846,
                0.0085068941116333,
                0.036069661378860474
            ],
            "min" : [
                -0.041741929948329926,
                -0.13203823566436768,
                -0.043629154562950134
            ],
            "type" : "VEC3"
        },
        {
            "bufferView" : 1,
            "componentType" : 5126,
            "count" : 68,
            "type" : "VEC3"
        },
        {
            "bufferView" : 2,
            "componentType" : 5126,
            "count" : 68,
            "type" : "VEC2"
        },
        {
            "bufferView" : 3,
            "componentType" : 5123,
            "count" : 84,
            "type" : "SCALAR"
        },
        {
            "bufferView" : 4,
            "componentType" : 5126,
            "count" : 611,
            "max" : [
                0.058086372911930084,
                0.14886045455932617,
                0.037734270095825195
            ],
            "min" : [
                -0.06469812244176865,
                -0.05131291598081589,
                -0.046607717871665955
            ],
            "type" : "VEC3"
        },
        {
            "bufferView" : 5,
            "componentType" : 5126,
            "count" : 611,
            "type" : "VEC3"
        },
        {
            "bufferView" : 6,
            "componentType" : 5126,
            "count" : 611,
            "type" : "VEC2"
        },
        {
            "bufferView" : 7,
            "componentType" : 5123,
            "count" : 918,
            "type" : "SCALAR"
        }
    ],
    "bufferViews" : [
        {
            "buffer" : 0,
            "byteLength" : 816,
            "byteOffset" : 0
        },
        {
            "buffer" : 0,
            "byteLength" : 816,
            "byteOffset" : 816
        },
        {
            "buffer" : 0,
            "byteLength" : 544,
            "byteOffset" : 1632
        },
        {
            "buffer" : 0,
            "byteLength" : 168,
            "byteOffset" : 2176
        },
        {
            "buffer" : 0,
            "byteLength" : 7332,
            "byteOffset" : 2344
        },
        {
            "buffer" : 0,
            "byteLength" : 7332,
            "byteOffset" : 9676
        },
        {
            "buffer" : 0,
            "byteLength" : 4888,
            "byteOffset" : 17008
        },
        {
            "buffer" : 0,
            "byteLength" : 1836,
            "byteOffset" : 21896
        }
    ],
    "buffers" : [
        {
            "byteLength" : 23732,
            "uri" : "data:application/octet-stream;base64,"
        }
    ]
}
