{
    "asset" : {
        "generator" : "Khronos Blender glTF 2.0 I/O",
        "version" : "2.0"
    },
    "scene" : 0,
    "scenes" : [
        {
            "name" : "Scene",
            "nodes" : [
                0
            ]
        }
    ],
    "nodes" : [
        {
            "mesh" : 0,
            "name" : "group361686190",
            "rotation" : [
                0.09816893190145493,
                -0.011881336569786072,
                0.052085407078266144,
                0.9937347769737244
            ],
            "translation" : [
                -0.0008059442043304443,
                0.0018471777439117432,
                0.0010961070656776428
            ]
        }
    ],
    "materials" : [
        {
            "name" : "mat21",
            "pbrMetallicRoughness" : {
                "baseColorFactor" : [
                    1,
                    1,
                    1,
                    1
                ],
                "metallicFactor" : 0,
                "roughnessFactor" : 1
            }
        },
        {
            "name" : "mat16",
            "pbrMetallicRoughness" : {
                "baseColorFactor" : [
                    0.4699999988079071,
                    0.5600000023841858,
                    0.6100000143051147,
                    1
                ],
                "metallicFactor" : 0,
                "roughnessFactor" : 1
            }
        }
    ],
    "meshes" : [
        {
            "name" : "group361686190",
            "primitives" : [
                {
                    "attributes" : {
                        "POSITION" : 0,
                        "NORMAL" : 1,
                        "TEXCOORD_0" : 2
                    },
                    "indices" : 3,
                    "material" : 0
                },
                {
                    "attributes" : {
                        "POSITION" : 4,
                        "NORMAL" : 5,
                        "TEXCOORD_0" : 6
                    },
                    "indices" : 7,
                    "material" : 1
                }
            ]
        }
    ],
    "accessors" : [
        {
            "bufferView" : 0,
            "componentType" : 5126,
            "count" : 104,
            "max" : [
                0.03417673707008362,
                0.12190230190753937,
                0.0471312552690506
            ],
            "min" : [
                -0.032427459955215454,
                -0.09157565981149673,
                -0.03358644247055054
            ],
            "type" : "VEC3"
        },
        {
            "bufferView" : 1,
            "componentType" : 5126,
            "count" : 104,
            "type" : "VEC3"
        },
        {
            "bufferView" : 2,
            "componentType" : 5126,
            "count" : 104,
            "type" : "VEC2"
        },
        {
            "bufferView" : 3,
            "componentType" : 5123,
            "count" : 138,
            "type" : "SCALAR"
        },
        {
            "bufferView" : 4,
            "componentType" : 5126,
            "count" : 36,
            "max" : [
                0.032772958278656006,
                0.03701956570148468,
                0.027731560170650482
            ],
            "min" : [
                -0.026395142078399658,
                -0.07672516256570816,
                -0.028351962566375732
            ],
            "type" : "VEC3"
        },
        {
            "bufferView" : 5,
            "componentType" : 5126,
            "count" : 36,
            "type" : "VEC3"
        },
        {
            "bufferView" : 6,
            "componentType" : 5126,
            "count" : 36,
            "type" : "VEC2"
        },
        {
            "bufferView" : 7,
            "componentType" : 5123,
            "count" : 54,
            "type" : "SCALAR"
        }
    ],
    "bufferViews" : [
        {
            "buffer" : 0,
            "byteLength" : 1248,
            "byteOffset" : 0
        },
        {
            "buffer" : 0,
            "byteLength" : 1248,
            "byteOffset" : 1248
        },
        {
            "buffer" : 0,
            "byteLength" : 832,
            "byteOffset" : 2496
        },
        {
            "buffer" : 0,
            "byteLength" : 276,
            "byteOffset" : 3328
        },
        {
            "buffer" : 0,
            "byteLength" : 432,
            "byteOffset" : 3604
        },
        {
            "buffer" : 0,
            "byteLength" : 432,
            "byteOffset" : 4036
        },
        {
            "buffer" : 0,
            "byteLength" : 288,
            "byteOffset" : 4468
        },
        {
            "buffer" : 0,
            "byteLength" : 108,
            "byteOffset" : 4756
        }
    ],
    "buffers" : [
        {
            "byteLength" : 4864,
            "uri" : "data:application/octet-stream;base64,"
        }
    ]
}
