{
    "asset" : {
        "generator" : "Khronos Blender glTF 2.0 I/O",
        "version" : "2.0"
    },
    "scene" : 0,
    "scenes" : [
        {
            "name" : "Scene",
            "nodes" : [
                0
            ]
        }
    ],
    "nodes" : [
        {
            "mesh" : 0,
            "name" : "group963082950",
            "rotation" : [
                0.7071068286895752,
                0,
                0,
                0.7071067094802856
            ],
            "translation" : [
                -0.0008059367537498474,
                0.25358688831329346,
                0.0010961145162582397
            ]
        }
    ],
    "materials" : [
        {
            "name" : "mat21",
            "pbrMetallicRoughness" : {
                "baseColorFactor" : [
                    1,
                    1,
                    1,
                    1
                ],
                "metallicFactor" : 0,
                "roughnessFactor" : 1
            }
        },
        {
            "name" : "mat16",
            "pbrMetallicRoughness" : {
                "baseColorFactor" : [
                    0.4699999988079071,
                    0.5600000023841858,
                    0.6100000143051147,
                    1
                ],
                "metallicFactor" : 0,
                "roughnessFactor" : 1
            }
        },
        {
            "name" : "mat5",
            "pbrMetallicRoughness" : {
                "baseColorFactor" : [
                    0.009999999776482582,
                    0.6100000143051147,
                    0.8999999761581421,
                    1
                ],
                "metallicFactor" : 0,
                "roughnessFactor" : 1
            }
        },
        {
            "name" : "mat22",
            "pbrMetallicRoughness" : {
                "baseColorFactor" : [
                    0.6200000047683716,
                    0.6200000047683716,
                    0.6200000047683716,
                    1
                ],
                "metallicFactor" : 0,
                "roughnessFactor" : 1
            }
        },
        {
            "name" : "mat13",
            "pbrMetallicRoughness" : {
                "baseColorFactor" : [
                    1,
                    0.6000000238418579,
                    0,
                    1
                ],
                "metallicFactor" : 0,
                "roughnessFactor" : 1
            }
        },
        {
            "name" : "mat8",
            "pbrMetallicRoughness" : {
                "baseColorFactor" : [
                    0.9599999785423279,
                    0.25999999046325684,
                    0.20999999344348907,
                    1
                ],
                "metallicFactor" : 0,
                "roughnessFactor" : 1
            }
        },
        {
            "name" : "mat23",
            "pbrMetallicRoughness" : {
                "baseColorFactor" : [
                    0.10000000149011612,
                    0.10000000149011612,
                    0.10000000149011612,
                    1
                ],
                "metallicFactor" : 0,
                "roughnessFactor" : 1
            }
        },
        {
            "name" : "mat15",
            "pbrMetallicRoughness" : {
                "baseColorFactor" : [
                    0.8100000023841858,
                    0.8500000238418579,
                    0.8600000143051147,
                    1
                ],
                "metallicFactor" : 0,
                "roughnessFactor" : 1
            }
        },
        {
            "name" : "mat3",
            "pbrMetallicRoughness" : {
                "baseColorFactor" : [
                    0.5,
                    0.8700000047683716,
                    0.9200000166893005,
                    1
                ],
                "metallicFactor" : 0,
                "roughnessFactor" : 1
            }
        },
        {
            "name" : "mat12",
            "pbrMetallicRoughness" : {
                "baseColorFactor" : [
                    1,
                    0.9200000166893005,
                    0.23000000417232513,
                    1
                ],
                "metallicFactor" : 0,
                "roughnessFactor" : 1
            }
        },
        {
            "name" : "mat14",
            "pbrMetallicRoughness" : {
                "baseColorFactor" : [
                    1,
                    0.3400000035762787,
                    0.12999999523162842,
                    1
                ],
                "metallicFactor" : 0,
                "roughnessFactor" : 1
            }
        }
    ],
    "meshes" : [
        {
            "name" : "group963082950",
            "primitives" : [
                {
                    "attributes" : {
                        "POSITION" : 0,
                        "NORMAL" : 1,
                        "TEXCOORD_0" : 2
                    },
                    "indices" : 3,
                    "material" : 0
                },
                {
                    "attributes" : {
                        "POSITION" : 4,
                        "NORMAL" : 5,
                        "TEXCOORD_0" : 6
                    },
                    "indices" : 7,
                    "material" : 1
                },
                {
                    "attributes" : {
                        "POSITION" : 8,
                        "NORMAL" : 9,
                        "TEXCOORD_0" : 10
                    },
                    "indices" : 11,
                    "material" : 2
                },
                {
                    "attributes" : {
                        "POSITION" : 12,
                        "NORMAL" : 13,
                        "TEXCOORD_0" : 14
                    },
                    "indices" : 15,
                    "material" : 3
                },
                {
                    "attributes" : {
                        "POSITION" : 16,
                        "NORMAL" : 17,
                        "TEXCOORD_0" : 18
                    },
                    "indices" : 19,
                    "material" : 4
                },
                {
                    "attributes" : {
                        "POSITION" : 20,
                        "NORMAL" : 21,
                        "TEXCOORD_0" : 22
                    },
                    "indices" : 23,
                    "material" : 5
                },
                {
                    "attributes" : {
                        "POSITION" : 24,
                        "NORMAL" : 25,
                        "TEXCOORD_0" : 26
                    },
                    "indices" : 27,
                    "material" : 6
                },
                {
                    "attributes" : {
                        "POSITION" : 28,
                        "NORMAL" : 29,
                        "TEXCOORD_0" : 30
                    },
                    "indices" : 31,
                    "material" : 7
                },
                {
                    "attributes" : {
                        "POSITION" : 32,
                        "NORMAL" : 33,
                        "TEXCOORD_0" : 34
                    },
                    "indices" : 35,
                    "material" : 8
                },
                {
                    "attributes" : {
                        "POSITION" : 36,
                        "NORMAL" : 37,
                        "TEXCOORD_0" : 38
                    },
                    "indices" : 39,
                    "material" : 9
                },
                {
                    "attributes" : {
                        "POSITION" : 40,
                        "NORMAL" : 41,
                        "TEXCOORD_0" : 42
                    },
                    "indices" : 43,
                    "material" : 10
                }
            ]
        }
    ],
    "accessors" : [
        {
            "bufferView" : 0,
            "componentType" : 5126,
            "count" : 518,
            "max" : [
                0.05981878563761711,
                0.05272418260574341,
                0.13024351000785828
            ],
            "min" : [
                -0.08860330283641815,
                -0.024304628372192383,
                -0.06376749277114868
            ],
            "type" : "VEC3"
        },
        {
            "bufferView" : 1,
            "componentType" : 5126,
            "count" : 518,
            "type" : "VEC3"
        },
        {
            "bufferView" : 2,
            "componentType" : 5126,
            "count" : 518,
            "type" : "VEC2"
        },
        {
            "bufferView" : 3,
            "componentType" : 5123,
            "count" : 624,
            "type" : "SCALAR"
        },
        {
            "bufferView" : 4,
            "componentType" : 5126,
            "count" : 1386,
            "max" : [
                0.1836652010679245,
                0.12208455801010132,
                0.11832377314567566
            ],
            "min" : [
                -0.16965900361537933,
                -0.055480435490608215,
                -0.20058360695838928
            ],
            "type" : "VEC3"
        },
        {
            "bufferView" : 5,
            "componentType" : 5126,
            "count" : 1386,
            "type" : "VEC3"
        },
        {
            "bufferView" : 6,
            "componentType" : 5126,
            "count" : 1386,
            "type" : "VEC2"
        },
        {
            "bufferView" : 7,
            "componentType" : 5123,
            "count" : 2076,
            "type" : "SCALAR"
        },
        {
            "bufferView" : 8,
            "componentType" : 5126,
            "count" : 3560,
            "max" : [
                0.1956896036863327,
                0.05648326873779297,
                0.25737330317497253
            ],
            "min" : [
                -0.22649319469928741,
                -0.09692183136940002,
                -0.18729367852210999
            ],
            "type" : "VEC3"
        },
        {
            "bufferView" : 9,
            "componentType" : 5126,
            "count" : 3560,
            "type" : "VEC3"
        },
        {
            "bufferView" : 10,
            "componentType" : 5126,
            "count" : 3560,
            "type" : "VEC2"
        },
        {
            "bufferView" : 11,
            "componentType" : 5123,
            "count" : 4848,
            "type" : "SCALAR"
        },
        {
            "bufferView" : 12,
            "componentType" : 5126,
            "count" : 380,
            "max" : [
                0.09713028371334076,
                -0.014964938163757324,
                0.2481297254562378
            ],
            "min" : [
                -0.12521712481975555,
                -0.09577183425426483,
                0.117147296667099
            ],
            "type" : "VEC3"
        },
        {
            "bufferView" : 13,
            "componentType" : 5126,
            "count" : 380,
            "type" : "VEC3"
        },
        {
            "bufferView" : 14,
            "componentType" : 5126,
            "count" : 380,
            "type" : "VEC2"
        },
        {
            "bufferView" : 15,
            "componentType" : 5123,
            "count" : 576,
            "type" : "SCALAR"
        },
        {
            "bufferView" : 16,
            "componentType" : 5126,
            "count" : 160,
            "max" : [
                0.15441180765628815,
                0.012959867715835571,
                0.2468472123146057
            ],
            "min" : [
                -0.18848179280757904,
                -0.09037953615188599,
                -0.056248873472213745
            ],
            "type" : "VEC3"
        },
        {
            "bufferView" : 17,
            "componentType" : 5126,
            "count" : 160,
            "type" : "VEC3"
        },
        {
            "bufferView" : 18,
            "componentType" : 5126,
            "count" : 160,
            "type" : "VEC2"
        },
        {
            "bufferView" : 19,
            "componentType" : 5123,
            "count" : 228,
            "type" : "SCALAR"
        },
        {
            "bufferView" : 20,
            "componentType" : 5126,
            "count" : 535,
            "max" : [
                0.17336489260196686,
                0.09342199563980103,
                0.2434927225112915
            ],
            "min" : [
                -0.21068210899829865,
                -0.08901083469390869,
                -0.12482309341430664
            ],
            "type" : "VEC3"
        },
        {
            "bufferView" : 21,
            "componentType" : 5126,
            "count" : 535,
            "type" : "VEC3"
        },
        {
            "bufferView" : 22,
            "componentType" : 5126,
            "count" : 535,
            "type" : "VEC2"
        },
        {
            "bufferView" : 23,
            "componentType" : 5123,
            "count" : 771,
            "type" : "SCALAR"
        },
        {
            "bufferView" : 24,
            "componentType" : 5126,
            "count" : 1072,
            "max" : [
                0.26451656222343445,
                0.01933605968952179,
                0.22516341507434845
            ],
            "min" : [
                -0.10277107357978821,
                -0.1612134724855423,
                -0.09929639101028442
            ],
            "type" : "VEC3"
        },
        {
            "bufferView" : 25,
            "componentType" : 5126,
            "count" : 1072,
            "type" : "VEC3"
        },
        {
            "bufferView" : 26,
            "componentType" : 5126,
            "count" : 1072,
            "type" : "VEC2"
        },
        {
            "bufferView" : 27,
            "componentType" : 5123,
            "count" : 1836,
            "type" : "SCALAR"
        },
        {
            "bufferView" : 28,
            "componentType" : 5126,
            "count" : 2361,
            "max" : [
                0.11904828250408173,
                0.07950335741043091,
                0.21816390752792358
            ],
            "min" : [
                -0.15960460901260376,
                -0.029281333088874817,
                -0.17241600155830383
            ],
            "type" : "VEC3"
        },
        {
            "bufferView" : 29,
            "componentType" : 5126,
            "count" : 2361,
            "type" : "VEC3"
        },
        {
            "bufferView" : 30,
            "componentType" : 5126,
            "count" : 2361,
            "type" : "VEC2"
        },
        {
            "bufferView" : 31,
            "componentType" : 5123,
            "count" : 3519,
            "type" : "SCALAR"
        },
        {
            "bufferView" : 32,
            "componentType" : 5126,
            "count" : 112,
            "max" : [
                0.054086726158857346,
                0.04502037167549133,
                -0.06186777353286743
            ],
            "min" : [
                -0.11915962398052216,
                0.00011026859283447266,
                -0.15018600225448608
            ],
            "type" : "VEC3"
        },
        {
            "bufferView" : 33,
            "componentType" : 5126,
            "count" : 112,
            "type" : "VEC3"
        },
        {
            "bufferView" : 34,
            "componentType" : 5126,
            "count" : 112,
            "type" : "VEC2"
        },
        {
            "bufferView" : 35,
            "componentType" : 5123,
            "count" : 156,
            "type" : "SCALAR"
        },
        {
            "bufferView" : 36,
            "componentType" : 5126,
            "count" : 170,
            "max" : [
                0.022172071039676666,
                0.020063459873199463,
                0.04566618800163269
            ],
            "min" : [
                -0.06288363039493561,
                -0.011630132794380188,
                0.009072422981262207
            ],
            "type" : "VEC3"
        },
        {
            "bufferView" : 37,
            "componentType" : 5126,
            "count" : 170,
            "type" : "VEC3"
        },
        {
            "bufferView" : 38,
            "componentType" : 5126,
            "count" : 170,
            "type" : "VEC2"
        },
        {
            "bufferView" : 39,
            "componentType" : 5123,
            "count" : 216,
            "type" : "SCALAR"
        },
        {
            "bufferView" : 40,
            "componentType" : 5126,
            "count" : 1788,
            "max" : [
                0.11814378201961517,
                0.05714917182922363,
                -0.07272028923034668
            ],
            "min" : [
                -0.15887640416622162,
                0.016840264201164246,
                -0.11693528294563293
            ],
            "type" : "VEC3"
        },
        {
            "bufferView" : 41,
            "componentType" : 5126,
            "count" : 1788,
            "type" : "VEC3"
        },
        {
            "bufferView" : 42,
            "componentType" : 5126,
            "count" : 1788,
            "type" : "VEC2"
        },
        {
            "bufferView" : 43,
            "componentType" : 5123,
            "count" : 2388,
            "type" : "SCALAR"
        }
    ],
    "bufferViews" : [
        {
            "buffer" : 0,
            "byteLength" : 6216,
            "byteOffset" : 0
        },
        {
            "buffer" : 0,
            "byteLength" : 6216,
            "byteOffset" : 6216
        },
        {
            "buffer" : 0,
            "byteLength" : 4144,
            "byteOffset" : 12432
        },
        {
            "buffer" : 0,
            "byteLength" : 1248,
            "byteOffset" : 16576
        },
        {
            "buffer" : 0,
            "byteLength" : 16632,
            "byteOffset" : 17824
        },
        {
            "buffer" : 0,
            "byteLength" : 16632,
            "byteOffset" : 34456
        },
        {
            "buffer" : 0,
            "byteLength" : 11088,
            "byteOffset" : 51088
        },
        {
            "buffer" : 0,
            "byteLength" : 4152,
            "byteOffset" : 62176
        },
        {
            "buffer" : 0,
            "byteLength" : 42720,
            "byteOffset" : 66328
        },
        {
            "buffer" : 0,
            "byteLength" : 42720,
            "byteOffset" : 109048
        },
        {
            "buffer" : 0,
            "byteLength" : 28480,
            "byteOffset" : 151768
        },
        {
            "buffer" : 0,
            "byteLength" : 9696,
            "byteOffset" : 180248
        },
        {
            "buffer" : 0,
            "byteLength" : 4560,
            "byteOffset" : 189944
        },
        {
            "buffer" : 0,
            "byteLength" : 4560,
            "byteOffset" : 194504
        },
        {
            "buffer" : 0,
            "byteLength" : 3040,
            "byteOffset" : 199064
        },
        {
            "buffer" : 0,
            "byteLength" : 1152,
            "byteOffset" : 202104
        },
        {
            "buffer" : 0,
            "byteLength" : 1920,
            "byteOffset" : 203256
        },
        {
            "buffer" : 0,
            "byteLength" : 1920,
            "byteOffset" : 205176
        },
        {
            "buffer" : 0,
            "byteLength" : 1280,
            "byteOffset" : 207096
        },
        {
            "buffer" : 0,
            "byteLength" : 456,
            "byteOffset" : 208376
        },
        {
            "buffer" : 0,
            "byteLength" : 6420,
            "byteOffset" : 208832
        },
        {
            "buffer" : 0,
            "byteLength" : 6420,
            "byteOffset" : 215252
        },
        {
            "buffer" : 0,
            "byteLength" : 4280,
            "byteOffset" : 221672
        },
        {
            "buffer" : 0,
            "byteLength" : 1542,
            "byteOffset" : 225952
        },
        {
            "buffer" : 0,
            "byteLength" : 12864,
            "byteOffset" : 227496
        },
        {
            "buffer" : 0,
            "byteLength" : 12864,
            "byteOffset" : 240360
        },
        {
            "buffer" : 0,
            "byteLength" : 8576,
            "byteOffset" : 253224
        },
        {
            "buffer" : 0,
            "byteLength" : 3672,
            "byteOffset" : 261800
        },
        {
            "buffer" : 0,
            "byteLength" : 28332,
            "byteOffset" : 265472
        },
        {
            "buffer" : 0,
            "byteLength" : 28332,
            "byteOffset" : 293804
        },
        {
            "buffer" : 0,
            "byteLength" : 18888,
            "byteOffset" : 322136
        },
        {
            "buffer" : 0,
            "byteLength" : 7038,
            "byteOffset" : 341024
        },
        {
            "buffer" : 0,
            "byteLength" : 1344,
            "byteOffset" : 348064
        },
        {
            "buffer" : 0,
            "byteLength" : 1344,
            "byteOffset" : 349408
        },
        {
            "buffer" : 0,
            "byteLength" : 896,
            "byteOffset" : 350752
        },
        {
            "buffer" : 0,
            "byteLength" : 312,
            "byteOffset" : 351648
        },
        {
            "buffer" : 0,
            "byteLength" : 2040,
            "byteOffset" : 351960
        },
        {
            "buffer" : 0,
            "byteLength" : 2040,
            "byteOffset" : 354000
        },
        {
            "buffer" : 0,
            "byteLength" : 1360,
            "byteOffset" : 356040
        },
        {
            "buffer" : 0,
            "byteLength" : 432,
            "byteOffset" : 357400
        },
        {
            "buffer" : 0,
            "byteLength" : 21456,
            "byteOffset" : 357832
        },
        {
            "buffer" : 0,
            "byteLength" : 21456,
            "byteOffset" : 379288
        },
        {
            "buffer" : 0,
            "byteLength" : 14304,
            "byteOffset" : 400744
        },
        {
            "buffer" : 0,
            "byteLength" : 4776,
            "byteOffset" : 415048
        }
    ],
    "buffers" : [
        {
            "byteLength" : 419824,
            "uri" : "data:application/octet-stream;base64,"
        }
    ]
}
