{
    "asset" : {
        "generator" : "Khronos Blender glTF 2.0 I/O",
        "version" : "2.0"
    },
    "scene" : 0,
    "scenes" : [
        {
            "name" : "Scene",
            "nodes" : [
                0
            ]
        }
    ],
    "nodes" : [
        {
            "mesh" : 0,
            "name" : "hand-left",
            "rotation" : [
                0.7071068286895752,
                0,
                0,
                0.7071067094802856
            ]
        }
    ],
    "materials" : [
        {
            "name" : "matfinal.001",
            "pbrMetallicRoughness" : {
                "baseColorTexture" : {
                    "index" : 0,
                    "texCoord" : 0
                },
                "metallicFactor" : 0,
                "roughnessFactor" : 1
            }
        }
    ],
    "meshes" : [
        {
            "name" : "hand-left",
            "primitives" : [
                {
                    "attributes" : {
                        "POSITION" : 0,
                        "NORMAL" : 1,
                        "TEXCOORD_0" : 2
                    },
                    "indices" : 3,
                    "material" : 0
                }
            ]
        }
    ],
    "textures" : [
        {
            "source" : 0
        }
    ],
    "images" : [
        {
            "bufferView" : 4,
            "mimeType" : "image/png",
            "name" : "avatar1.jpg.001"
        }
    ],
    "accessors" : [
        {
            "bufferView" : 0,
            "componentType" : 5126,
            "count" : 669,
            "max" : [
                0.1669829934835434,
                0.07891900092363358,
                0.10954000055789948
            ],
            "min" : [
                -0.20180000364780426,
                -0.07415799796581268,
                -0.07624100148677826
            ],
            "type" : "VEC3"
        },
        {
            "bufferView" : 1,
            "componentType" : 5126,
            "count" : 669,
            "type" : "VEC3"
        },
        {
            "bufferView" : 2,
            "componentType" : 5126,
            "count" : 669,
            "type" : "VEC2"
        },
        {
            "bufferView" : 3,
            "componentType" : 5123,
            "count" : 3024,
            "type" : "SCALAR"
        }
    ],
    "bufferViews" : [
        {
            "buffer" : 0,
            "byteLength" : 8028,
            "byteOffset" : 0
        },
        {
            "buffer" : 0,
            "byteLength" : 8028,
            "byteOffset" : 8028
        },
        {
            "buffer" : 0,
            "byteLength" : 5352,
            "byteOffset" : 16056
        },
        {
            "buffer" : 0,
            "byteLength" : 6048,
            "byteOffset" : 21408
        },
        {
            "buffer" : 0,
            "byteLength" : 1019255,
            "byteOffset" : 27456
        }
    ],
    "buffers" : [
        {
            "byteLength" : 1046712,
            "uri" : "data:application/octet-stream;base64,"
        }
    ]
}
